Amstlevar-Italic-opsz144-wght900-wdth150.ufo
<glyph name="exclam" format="2">
  <advance width="771"/>
  <unicode hex="0021"/>
  <outline>
    <contour>
      <point x="74.0" y="175.0" type="qcurve" smooth="yes"/>
      <point x="78.0" y="264.0"/>
      <point x="185.0" y="372.0"/>
      <point x="275.0" y="372.0" type="qcurve" smooth="yes"/>
      <point x="359.0" y="372.0"/>
      <point x="459.0" y="260.0"/>
      <point x="452.0" y="175.0" type="qcurve" smooth="yes"/>
      <point x="448.0" y="86.0"/>
      <point x="340.0" y="-20.0"/>
      <point x="250.0" y="-20.0" type="qcurve" smooth="yes"/>
      <point x="166.0" y="-20.0"/>
      <point x="68.0" y="90.0"/>
    </contour>
    <contour>
      <point x="259.0" y="1345.0" type="line" smooth="yes"/>
      <point x="263.0" y="1430.0"/>
      <point x="425.0" y="1545.0"/>
      <point x="517.0" y="1545.0" type="qcurve" smooth="yes"/>
      <point x="610.0" y="1546.0"/>
      <point x="728.0" y="1429.0"/>
      <point x="702.0" y="1345.0" type="qcurve" smooth="yes"/>
      <point x="620.0" y="1118.0" type="line"/>
      <point x="499.0" y="933.0" type="line"/>
      <point x="362.0" y="499.0" type="line"/>
      <point x="271.0" y="490.0" type="line"/>
      <point x="302.0" y="924.0" type="line"/>
      <point x="259.0" y="1130.0" type="line"/>
    </contour>
  </outline>
</glyph>
<glyph name="numbersign" format="2">
  <advance width="1298"/>
  <unicode hex="0023"/>
  <outline>
    <contour>
      <point x="-75.0" y="367.0" type="line"/>
      <point x="-9.0" y="594.0" type="line"/>
      <point x="1106.0" y="594.0" type="line"/>
      <point x="1040.0" y="367.0" type="line"/>
    </contour>
    <contour>
      <point x="23.0" y="889.0" type="line"/>
      <point x="89.0" y="1116.0" type="line"/>
      <point x="1204.0" y="1116.0" type="line"/>
      <point x="1138.0" y="889.0" type="line"/>
    </contour>
    <contour>
      <point x="99.0" y="15.0" type="line"/>
      <point x="542.0" y="1453.0" type="line"/>
      <point x="588.0" y="1448.0" type="line"/>
      <point x="146.0" y="10.0" type="line"/>
    </contour>
    <contour>
      <point x="568.0" y="22.0" type="line"/>
      <point x="1011.0" y="1460.0" type="line"/>
      <point x="1057.0" y="1456.0" type="line"/>
      <point x="614.0" y="18.0" type="line"/>
    </contour>
  </outline>
</glyph>
<glyph name="percent" format="2">
  <advance width="2239"/>
  <unicode hex="0025"/>
  <outline>
    <contour>
      <point x="-32.0" y="1083.0" type="qcurve" smooth="yes"/>
      <point x="-2.0" y="1272.0"/>
      <point x="330.0" y="1521.0"/>
      <point x="559.0" y="1521.0" type="qcurve" smooth="yes"/>
      <point x="713.0" y="1521.0"/>
      <point x="969.0" y="1288.0"/>
      <point x="937.0" y="1084.0" type="qcurve" smooth="yes"/>
      <point x="906.0" y="893.0"/>
      <point x="566.0" y="642.0"/>
      <point x="356.0" y="641.0" type="qcurve" smooth="yes"/>
      <point x="181.0" y="640.0"/>
      <point x="-65.0" y="876.0"/>
    </contour>
    <contour>
      <point x="229.0" y="1101.0" type="qcurve" smooth="yes"/>
      <point x="195.0" y="927.0"/>
      <point x="263.0" y="679.0"/>
      <point x="379.0" y="679.0" type="qcurve" smooth="yes"/>
      <point x="501.0" y="678.0"/>
      <point x="647.0" y="902.0"/>
      <point x="680.0" y="1085.0" type="qcurve" smooth="yes"/>
      <point x="713.0" y="1253.0"/>
      <point x="621.0" y="1481.0"/>
      <point x="524.0" y="1481.0" type="qcurve" smooth="yes"/>
      <point x="419.0" y="1482.0"/>
      <point x="261.0" y="1274.0"/>
    </contour>
    <contour>
      <point x="289.0" y="-4.0" type="line"/>
      <point x="1646.0" y="1520.0" type="line"/>
      <point x="1709.0" y="1441.0" type="line"/>
      <point x="354.0" y="-80.0" type="line"/>
    </contour>
    <contour>
      <point x="1114.0" y="425.0" type="qcurve" smooth="yes"/>
      <point x="1144.0" y="614.0"/>
      <point x="1476.0" y="863.0"/>
      <point x="1705.0" y="863.0" type="qcurve" smooth="yes"/>
      <point x="1859.0" y="863.0"/>
      <point x="2110.0" y="630.0"/>
      <point x="2083.0" y="426.0" type="qcurve" smooth="yes"/>
      <point x="2057.0" y="235.0"/>
      <point x="1712.0" y="-16.0"/>
      <point x="1502.0" y="-17.0" type="qcurve" smooth="yes"/>
      <point x="1327.0" y="-18.0"/>
      <point x="1081.0" y="218.0"/>
    </contour>
    <contour>
      <point x="1375.0" y="443.0" type="qcurve" smooth="yes"/>
      <point x="1341.0" y="269.0"/>
      <point x="1409.0" y="21.0"/>
      <point x="1525.0" y="21.0" type="qcurve" smooth="yes"/>
      <point x="1647.0" y="20.0"/>
      <point x="1799.0" y="244.0"/>
      <point x="1826.0" y="427.0" type="qcurve" smooth="yes"/>
      <point x="1854.0" y="595.0"/>
      <point x="1767.0" y="823.0"/>
      <point x="1670.0" y="823.0" type="qcurve" smooth="yes"/>
      <point x="1565.0" y="824.0"/>
      <point x="1407.0" y="616.0"/>
    </contour>
  </outline>
</glyph>
<glyph name="ampersand" format="2">
  <advance width="1900"/>
  <unicode hex="0026"/>
  <outline>
    <contour>
      <point x="1290.0" y="-4.0" type="line"/>
      <point x="1184.0" y="217.0" type="line"/>
      <point x="1099.0" y="125.0"/>
      <point x="795.0" y="-30.0"/>
      <point x="605.0" y="-30.0" type="qcurve" smooth="yes"/>
      <point x="304.0" y="-30.0"/>
      <point x="16.0" y="209.0"/>
      <point x="50.0" y="402.0" type="qcurve" smooth="yes"/>
      <point x="84.0" y="590.0"/>
      <point x="437.0" y="769.0"/>
      <point x="791.0" y="784.0" type="qcurve"/>
      <point x="585.0" y="824.0"/>
      <point x="342.0" y="1059.0"/>
      <point x="376.0" y="1211.0" type="qcurve" smooth="yes"/>
      <point x="412.0" y="1379.0"/>
      <point x="753.0" y="1552.0"/>
      <point x="1040.0" y="1533.0" type="qcurve" smooth="yes"/>
      <point x="1151.0" y="1524.0"/>
      <point x="1388.0" y="1452.0"/>
      <point x="1401.0" y="1450.0" type="qcurve" smooth="yes"/>
      <point x="1428.0" y="1448.0"/>
      <point x="1466.0" y="1469.0"/>
      <point x="1467.0" y="1487.0" type="qcurve"/>
      <point x="1589.0" y="1487.0" type="line"/>
      <point x="1488.0" y="1102.0" type="line"/>
      <point x="1407.0" y="1102.0" type="line"/>
      <point x="1369.0" y="1344.0" type="line"/>
      <point x="1356.0" y="1387.0"/>
      <point x="1188.0" y="1446.0"/>
      <point x="1101.0" y="1446.0" type="qcurve" smooth="yes"/>
      <point x="976.0" y="1446.0"/>
      <point x="814.0" y="1282.0"/>
      <point x="794.0" y="1170.0" type="qcurve" smooth="yes"/>
      <point x="757.0" y="970.0"/>
      <point x="938.0" y="775.0"/>
      <point x="1206.0" y="775.0" type="qcurve" smooth="yes"/>
      <point x="1394.0" y="775.0"/>
      <point x="1804.0" y="800.0"/>
      <point x="1889.0" y="869.0" type="qcurve"/>
      <point x="1923.0" y="821.0" type="line"/>
      <point x="1900.0" y="767.0"/>
      <point x="1748.0" y="675.0"/>
      <point x="1635.0" y="675.0" type="qcurve" smooth="yes"/>
      <point x="1530.0" y="675.0"/>
      <point x="1094.0" y="718.0"/>
      <point x="1009.0" y="718.0" type="qcurve" smooth="yes"/>
      <point x="794.0" y="718.0"/>
      <point x="501.0" y="546.0"/>
      <point x="468.0" y="376.0" type="qcurve" smooth="yes"/>
      <point x="445.0" y="252.0"/>
      <point x="578.0" y="90.0"/>
      <point x="724.0" y="90.0" type="qcurve" smooth="yes"/>
      <point x="865.0" y="90.0"/>
      <point x="1122.0" y="266.0"/>
      <point x="1190.0" y="450.0" type="qcurve" smooth="yes"/>
      <point x="1284.0" y="727.0" type="line"/>
      <point x="1595.0" y="719.0" type="line"/>
      <point x="1481.0" y="510.0"/>
      <point x="1445.0" y="135.0"/>
      <point x="1480.0" y="15.0" type="qcurve"/>
    </contour>
  </outline>
</glyph>
<glyph name="comma" format="2">
  <advance width="633"/>
  <unicode hex="002C"/>
  <outline>
    <contour>
      <point x="32.0" y="-292.0" type="line"/>
      <point x="122.0" y="-219.0"/>
      <point x="248.0" y="-79.0"/>
      <point x="279.0" y="-18.0" type="qcurve"/>
      <point x="160.0" y="-20.0"/>
      <point x="28.0" y="90.0"/>
      <point x="28.0" y="186.0" type="qcurve" smooth="yes"/>
      <point x="28.0" y="266.0"/>
      <point x="148.0" y="389.0"/>
      <point x="239.0" y="389.0" type="qcurve" smooth="yes"/>
      <point x="333.0" y="389.0"/>
      <point x="453.0" y="285.0"/>
      <point x="453.0" y="155.0" type="qcurve" smooth="yes"/>
      <point x="453.0" y="6.0"/>
      <point x="251.0" y="-249.0"/>
      <point x="68.0" y="-344.0" type="qcurve"/>
    </contour>
  </outline>
</glyph>
<glyph name="slash" format="2">
  <advance width="803"/>
  <unicode hex="002F"/>
  <outline>
    <contour>
      <point x="-131.0" y="-71.0" type="line"/>
      <point x="719.0" y="1607.0" type="line"/>
      <point x="928.0" y="1505.0" type="line"/>
      <point x="80.0" y="-172.0" type="line"/>
    </contour>
  </outline>
</glyph>
<glyph name="zero" format="2">
  <advance width="1697"/>
  <unicode hex="0030"/>
  <outline>
    <contour>
      <point x="30" y="879" type="qcurve" smooth="yes"/>
      <point x="113" y="1195"/>
      <point x="651" y="1571"/>
      <point x="1012" y="1529" type="qcurve" smooth="yes"/>
      <point x="1332" y="1491"/>
      <point x="1644" y="986"/>
      <point x="1562" y="662" type="qcurve" smooth="yes"/>
      <point x="1475" y="327"/>
      <point x="938" y="-45"/>
      <point x="587" y="-17" type="qcurve" smooth="yes"/>
      <point x="252" y="16"/>
      <point x="-59" y="530"/>
    </contour>
    <contour>
      <point x="506" y="873" type="qcurve" smooth="yes"/>
      <point x="410" y="519"/>
      <point x="451" y="119"/>
      <point x="618" y="89" type="qcurve" smooth="yes"/>
      <point x="791" y="56"/>
      <point x="1016" y="400"/>
      <point x="1096" y="695" type="qcurve" smooth="yes"/>
      <point x="1175" y="999"/>
      <point x="1147" y="1431"/>
      <point x="980" y="1453" type="qcurve" smooth="yes"/>
      <point x="818" y="1475"/>
      <point x="592" y="1191"/>
    </contour>
  </outline>
</glyph>
<glyph name="one" format="2">
  <advance width="999"/>
  <unicode hex="0031"/>
  <outline>
    <contour>
      <point x="140" y="31" type="line"/>
      <point x="168" y="65"/>
      <point x="192" y="158"/>
      <point x="232" y="319" type="qcurve" smooth="yes"/>
      <point x="408" y="1039" type="line"/>
      <point x="462" y="1287" type="line"/>
      <point x="-9" y="1109" type="line"/>
      <point x="-46" y="1209" type="line"/>
      <point x="815" y="1527" type="line"/>
      <point x="947" y="1442" type="line"/>
      <point x="925" y="1400"/>
      <point x="899" y="1302"/>
      <point x="883" y="1234" type="qcurve" smooth="yes"/>
      <point x="757" y="714" type="line"/>
      <point x="632" y="144" type="line"/>
      <point x="261" y="-28" type="line"/>
    </contour>
  </outline>
</glyph>
<glyph name="two" format="2">
  <advance width="1253"/>
  <unicode hex="0032"/>
  <outline>
    <contour>
      <point x="-171" y="-2" type="qcurve"/>
      <point x="-224" y="65" type="line"/>
      <point x="-62" y="197" type="line" smooth="yes"/>
      <point x="169" y="386"/>
      <point x="683" y="883"/>
      <point x="712" y="1054" type="qcurve" smooth="yes"/>
      <point x="735" y="1192"/>
      <point x="600" y="1293"/>
      <point x="501" y="1293" type="qcurve" smooth="yes"/>
      <point x="376" y="1293"/>
      <point x="143" y="1176"/>
      <point x="73" y="1091" type="qcurve"/>
      <point x="18" y="1144" type="line"/>
      <point x="98" y="1270"/>
      <point x="494" y="1523"/>
      <point x="744" y="1523" type="qcurve" smooth="yes"/>
      <point x="943" y="1523"/>
      <point x="1158" y="1373"/>
      <point x="1158" y="1211" type="qcurve" smooth="yes"/>
      <point x="1158" y="981"/>
      <point x="749" y="622"/>
      <point x="287" y="386" type="qcurve"/>
      <point x="289" y="381" type="line"/>
      <point x="349" y="394"/>
      <point x="458" y="411"/>
      <point x="543" y="411" type="qcurve" smooth="yes"/>
      <point x="668" y="411"/>
      <point x="938" y="355"/>
      <point x="1025" y="317" type="qcurve"/>
      <point x="1088" y="414" type="line"/>
      <point x="1154" y="392" type="line"/>
      <point x="973" y="-26" type="line"/>
      <point x="802" y="27"/>
      <point x="409" y="88"/>
      <point x="305" y="88" type="qcurve" smooth="yes"/>
      <point x="179" y="88"/>
      <point x="-96" y="44"/>
    </contour>
  </outline>
</glyph>
<glyph name="three" format="2">
  <advance width="1273"/>
  <unicode hex="0033"/>
  <outline>
    <contour>
      <point x="-189" y="258" type="qcurve" smooth="yes"/>
      <point x="-188" y="333"/>
      <point x="-112" y="412"/>
      <point x="-41" y="412" type="qcurve"/>
      <point x="12" y="412" type="line"/>
      <point x="7" y="358"/>
      <point x="3" y="288"/>
      <point x="3" y="255" type="qcurve" smooth="yes"/>
      <point x="3" y="156"/>
      <point x="163" y="57"/>
      <point x="293" y="55" type="qcurve" smooth="yes"/>
      <point x="461" y="53"/>
      <point x="629" y="272"/>
      <point x="647" y="449" type="qcurve" smooth="yes"/>
      <point x="664" y="623"/>
      <point x="492" y="764"/>
      <point x="323" y="767" type="qcurve" smooth="yes"/>
      <point x="201" y="769" type="line"/>
      <point x="204" y="847" type="line"/>
      <point x="284" y="847" type="line" smooth="yes"/>
      <point x="487" y="847"/>
      <point x="697" y="1028"/>
      <point x="711" y="1147" type="qcurve" smooth="yes"/>
      <point x="723" y="1247"/>
      <point x="632" y="1356"/>
      <point x="523" y="1356" type="qcurve" smooth="yes"/>
      <point x="426" y="1356"/>
      <point x="204" y="1250"/>
      <point x="131" y="1175" type="qcurve"/>
      <point x="75" y="1244" type="line"/>
      <point x="153" y="1334"/>
      <point x="500" y="1526"/>
      <point x="745" y="1526" type="qcurve" smooth="yes"/>
      <point x="957" y="1526"/>
      <point x="1205" y="1359"/>
      <point x="1186" y="1189" type="qcurve" smooth="yes"/>
      <point x="1169" y="1038"/>
      <point x="909" y="857"/>
      <point x="679" y="826" type="qcurve"/>
      <point x="678" y="819" type="line"/>
      <point x="893" y="804"/>
      <point x="1162" y="614"/>
      <point x="1150" y="441" type="qcurve" smooth="yes"/>
      <point x="1135" y="234"/>
      <point x="728" y="-23"/>
      <point x="379" y="-23" type="qcurve" smooth="yes"/>
      <point x="92.0" y="-23"/>
      <point x="-191" y="137"/>
    </contour>
  </outline>
</glyph>
<glyph name="four" format="2">
  <advance width="1432"/>
  <unicode hex="0034"/>
  <outline>
    <contour>
      <point x="-117.0" y="405.0" type="line"/>
      <point x="-136.0" y="500.0" type="line"/>
      <point x="1050.0" y="1555.0" type="line"/>
      <point x="1263.0" y="1448.0" type="line"/>
      <point x="1271.0" y="1398.0" type="line"/>
      <point x="1078.0" y="513.0" type="line"/>
      <point x="1073.0" y="486.0" type="line"/>
      <point x="1011.0" y="180.0" type="line"/>
      <point x="1044.0" y="74.0" type="line"/>
      <point x="601.0" y="-46.0" type="line"/>
      <point x="510.0" y="14.0" type="line"/>
      <point x="643.0" y="488.0" type="line"/>
      <point x="651.0" y="513.0" type="line"/>
      <point x="819.0" y="1221.0" type="line"/>
      <point x="86.0" y="577.0" type="line"/>
      <point x="90.0" y="567.0" type="line"/>
      <point x="900.0" y="560.0" type="line"/>
      <point x="1345.0" y="560.0" type="line"/>
      <point x="1313.0" y="404.0" type="line"/>
      <point x="889.0" y="398.0" type="line"/>
    </contour>
  </outline>
</glyph>
<glyph name="five" format="2">
  <advance width="1382"/>
  <unicode hex="0035"/>
  <outline>
    <contour>
      <point x="-143" y="216" type="qcurve" smooth="yes"/>
      <point x="-143" y="315"/>
      <point x="-45" y="396"/>
      <point x="18" y="396" type="qcurve"/>
      <point x="48" y="396" type="line"/>
      <point x="54" y="251" type="line" smooth="yes"/>
      <point x="58" y="158"/>
      <point x="206" y="54"/>
      <point x="383" y="54" type="qcurve" smooth="yes"/>
      <point x="572" y="54"/>
      <point x="753" y="307"/>
      <point x="773" y="520" type="qcurve" smooth="yes"/>
      <point x="794" y="750"/>
      <point x="458" y="848"/>
      <point x="216" y="775" type="qcurve" smooth="yes"/>
      <point x="149" y="755" type="line"/>
      <point x="84" y="816" type="line"/>
      <point x="233" y="1467" type="line"/>
      <point x="271" y="1500" type="line"/>
      <point x="1283" y="1500" type="line"/>
      <point x="1200" y="1114" type="line"/>
      <point x="259" y="1114" type="line"/>
      <point x="246" y="1103" type="line"/>
      <point x="222" y="1023"/>
      <point x="200" y="928"/>
      <point x="189" y="862" type="qcurve"/>
      <point x="488" y="950" type="line"/>
      <point x="856" y="964"/>
      <point x="1268" y="750"/>
      <point x="1249" y="518" type="qcurve" smooth="yes"/>
      <point x="1230" y="283"/>
      <point x="753" y="-24"/>
      <point x="403" y="-24" type="qcurve" smooth="yes"/>
      <point x="117" y="-24"/>
      <point x="-143" y="128"/>
    </contour>
  </outline>
</glyph>
<glyph name="six" format="2">
  <advance width="1547"/>
  <unicode hex="0036"/>
  <outline>
    <contour>
      <point x="-22" y="564" type="qcurve" smooth="yes"/>
      <point x="-8" y="931"/>
      <point x="837.0" y="1515.0"/>
      <point x="1405.0" y="1580.0" type="qcurve"/>
      <point x="1429.0" y="1515.0" type="line"/>
      <point x="990.0" y="1433.0"/>
      <point x="463.0" y="857.0"/>
      <point x="437" y="461" type="qcurve" smooth="yes"/>
      <point x="421" y="215"/>
      <point x="520" y="57"/>
      <point x="618" y="57.0" type="qcurve" smooth="yes"/>
      <point x="748" y="57"/>
      <point x="894" y="318"/>
      <point x="910.0" y="488.0" type="qcurve" smooth="yes"/>
      <point x="924.0" y="639.0"/>
      <point x="824" y="767.0"/>
      <point x="735.0" y="767.0" type="qcurve" smooth="yes"/>
      <point x="691" y="767"/>
      <point x="615.0" y="748.0"/>
      <point x="577.0" y="730.0" type="qcurve"/>
      <point x="558.0" y="793.0" type="line"/>
      <point x="619.0" y="830.0"/>
      <point x="845" y="900"/>
      <point x="946" y="900.0" type="qcurve" smooth="yes"/>
      <point x="1166" y="900.0"/>
      <point x="1424" y="703"/>
      <point x="1411" y="501" type="qcurve" smooth="yes"/>
      <point x="1397.0" y="281.0"/>
      <point x="919.0" y="-19.0"/>
      <point x="582.0" y="-19.0" type="qcurve" smooth="yes"/>
      <point x="360.0" y="-19.0"/>
      <point x="-32" y="280"/>
    </contour>
  </outline>
</glyph>
<glyph name="seven" format="2">
  <advance width="1362"/>
  <unicode hex="0037"/>
  <outline>
    <contour>
      <point x="-20.0" y="1040.0" type="line"/>
      <point x="98.0" y="1500.0" type="line"/>
      <point x="1462.0" y="1500.0" type="line"/>
      <point x="1492.0" y="1444.0" type="line"/>
      <point x="1201.0" y="1194.0"/>
      <point x="656.0" y="493.0"/>
      <point x="574.0" y="105.0" type="qcurve"/>
      <point x="198.0" y="-31.0" type="line"/>
      <point x="146.0" y="15.0" type="line"/>
      <point x="308.0" y="450.0"/>
      <point x="826.0" y="997.0"/>
      <point x="1059.0" y="1118.0" type="qcurve"/>
      <point x="1053.0" y="1123.0" type="line"/>
      <point x="81.0" y="1117.0" type="line"/>
      <point x="60.0" y="1040.0" type="line"/>
    </contour>
  </outline>
</glyph>
<glyph name="semicolon" format="2">
  <advance width="619"/>
  <unicode hex="003B"/>
  <outline>
    <contour>
      <point x="49.0" y="730.0" type="qcurve" smooth="yes"/>
      <point x="49.0" y="812.0"/>
      <point x="168.0" y="931.0"/>
      <point x="261.0" y="931.0" type="qcurve" smooth="yes"/>
      <point x="353.0" y="931.0"/>
      <point x="474.0" y="812.0"/>
      <point x="474.0" y="730.0" type="qcurve" smooth="yes"/>
      <point x="474.0" y="649.0"/>
      <point x="353.0" y="529.0"/>
      <point x="261.0" y="529.0" type="qcurve" smooth="yes"/>
      <point x="168.0" y="529.0"/>
      <point x="49.0" y="649.0"/>
    </contour>
    <contour>
      <point x="-33.0" y="-292.0" type="line"/>
      <point x="57.0" y="-219.0"/>
      <point x="183.0" y="-79.0"/>
      <point x="214.0" y="-18.0" type="qcurve"/>
      <point x="95.0" y="-20.0"/>
      <point x="-37.0" y="90.0"/>
      <point x="-37.0" y="186.0" type="qcurve" smooth="yes"/>
      <point x="-37.0" y="266.0"/>
      <point x="83.0" y="389.0"/>
      <point x="174.0" y="389.0" type="qcurve" smooth="yes"/>
      <point x="268.0" y="389.0"/>
      <point x="388.0" y="285.0"/>
      <point x="388.0" y="155.0" type="qcurve" smooth="yes"/>
      <point x="388.0" y="6.0"/>
      <point x="186.0" y="-249.0"/>
      <point x="3.0" y="-344.0" type="qcurve"/>
    </contour>
  </outline>
</glyph>
<glyph name="less" format="2">
  <advance width="1152"/>
  <unicode hex="003C"/>
  <outline>
    <contour>
      <point x="7.0" y="518.0" type="qcurve"/>
      <point x="-88.0" y="482.0"/>
      <point x="783.0" y="970.0"/>
      <point x="885.0" y="1025.0" type="qcurve" smooth="yes"/>
      <point x="932.0" y="1058.0"/>
      <point x="1004.0" y="881.0"/>
      <point x="965.0" y="849.0" type="qcurve" smooth="yes"/>
      <point x="843.0" y="775.0"/>
      <point x="487.0" y="571.0"/>
      <point x="454.0" y="534.0" type="qcurve"/>
      <point x="482.0" y="503.0"/>
      <point x="852.0" y="256.0"/>
      <point x="959.0" y="201.0" type="qcurve"/>
      <point x="988.0" y="174.0"/>
      <point x="916.0" y="35.0"/>
      <point x="891.0" y="53.0" type="qcurve" smooth="yes"/>
      <point x="771.0" y="116.0"/>
      <point x="-40.0" y="538.0"/>
    </contour>
  </outline>
</glyph>
<glyph name="greater" format="2">
  <advance width="1152"/>
  <unicode hex="003E"/>
  <outline>
    <contour>
      <point x="942.0" y="551.0" type="qcurve"/>
      <point x="998.0" y="573.0"/>
      <point x="196.08955223880594" y="141.38805970149258"/>
      <point x="65.0" y="68.0" type="qcurve" smooth="yes"/>
      <point x="16.0" y="35.0"/>
      <point x="-52.0" y="212.0"/>
      <point x="-12.0" y="245.0" type="qcurve" smooth="yes"/>
      <point x="104.0" y="316.0"/>
      <point x="474.0" y="521.0"/>
      <point x="496.0" y="549.0" type="qcurve"/>
      <point x="457.0" y="589.0"/>
      <point x="104.0" y="836.0"/>
      <point x="-8.0" y="894.0" type="qcurve"/>
      <point x="-38.0" y="920.0"/>
      <point x="40.0" y="1058.0"/>
      <point x="63.0" y="1040.0" type="qcurve" smooth="yes"/>
      <point x="186.0" y="971.0"/>
      <point x="1012.0" y="519.0"/>
    </contour>
  </outline>
</glyph>
<glyph name="question" format="2">
  <advance width="1412"/>
  <unicode hex="003F"/>
  <outline>
    <contour>
      <point x="189.0" y="1225.0" type="qcurve" smooth="yes"/>
      <point x="210.0" y="1359.0"/>
      <point x="524.0" y="1521.0"/>
      <point x="770.0" y="1521.0" type="qcurve" smooth="yes"/>
      <point x="1079.0" y="1521.0"/>
      <point x="1325.0" y="1299.0"/>
      <point x="1313.0" y="1120.0" type="qcurve" smooth="yes"/>
      <point x="1301.0" y="946.0"/>
      <point x="1084.0" y="763.0"/>
      <point x="993.0" y="804.0" type="qcurve" smooth="yes"/>
      <point x="752.0" y="718.0"/>
      <point x="435.0" y="605.0"/>
      <point x="411.0" y="523.0" type="qcurve" smooth="yes"/>
      <point x="396.0" y="466.0" type="line"/>
      <point x="296.0" y="476.0" type="line"/>
      <point x="302.0" y="560.0" type="line" smooth="yes"/>
      <point x="307.0" y="670.0"/>
      <point x="450.0" y="862.0"/>
      <point x="729.0" y="990.0" type="qcurve" smooth="yes"/>
      <point x="822.0" y="1005.0"/>
      <point x="899.0" y="1067.0"/>
      <point x="910.0" y="1162.0" type="qcurve" smooth="yes"/>
      <point x="920.0" y="1273.0"/>
      <point x="769.0" y="1421.0"/>
      <point x="646.0" y="1421.0" type="qcurve" smooth="yes"/>
      <point x="533.0" y="1421.0"/>
      <point x="405.0" y="1355.0"/>
      <point x="391.0" y="1287.0" type="qcurve" smooth="yes"/>
      <point x="384.0" y="1256.0"/>
      <point x="455.0" y="1193.0"/>
      <point x="462.0" y="1134.0" type="qcurve" smooth="yes"/>
      <point x="467.0" y="1087.0"/>
      <point x="376.0" y="1031.0"/>
      <point x="311.0" y="1031.0" type="qcurve" smooth="yes"/>
      <point x="246.0" y="1031.0"/>
      <point x="175.0" y="1130.0"/>
    </contour>
    <contour>
      <point x="92.0" y="175.0" type="qcurve" smooth="yes"/>
      <point x="96.0" y="264.0"/>
      <point x="203.0" y="372.0"/>
      <point x="293.0" y="372.0" type="qcurve" smooth="yes"/>
      <point x="377.0" y="372.0"/>
      <point x="477.0" y="260.0"/>
      <point x="470.0" y="175.0" type="qcurve" smooth="yes"/>
      <point x="466.0" y="86.0"/>
      <point x="358.0" y="-20.0"/>
      <point x="268.0" y="-20.0" type="qcurve" smooth="yes"/>
      <point x="184.0" y="-20.0"/>
      <point x="86.0" y="90.0"/>
    </contour>
  </outline>
</glyph>
<glyph name="A" format="2">
  <advance width="1890"/>
  <unicode hex="0041"/>
  <outline>
    <contour>
      <point x="-184.0" y="0.0" type="line"/>
      <point x="-175.0" y="54.0" type="line"/>
      <point x="-7.0" y="70.0" type="line"/>
      <point x="353.0" y="549.0" type="line"/>
      <point x="985.0" y="1495.0" type="line"/>
      <point x="1410.0" y="1484.0" type="line"/>
      <point x="1513.0" y="561.0" type="line"/>
      <point x="1577.0" y="70.0" type="line"/>
      <point x="1725.0" y="55.0" type="line"/>
      <point x="1728.0" y="0.0" type="line"/>
      <point x="867.0" y="0.0" type="line"/>
      <point x="874.0" y="55.0" type="line"/>
      <point x="1061.0" y="77.0" type="line"/>
      <point x="1006.0" y="547.0" type="line"/>
      <point x="928.0" y="1286.0" type="line"/>
      <point x="913.0" y="1282.0" type="line"/>
      <point x="457.0" y="547.0" type="line"/>
      <point x="125.0" y="73.0" type="line"/>
      <point x="331.0" y="54.0" type="line"/>
      <point x="332.0" y="0.0" type="line"/>
    </contour>
    <contour>
      <point x="396.0" y="512.0" type="line"/>
      <point x="432.0" y="607.0" type="line"/>
      <point x="705.0" y="600.0" type="line"/>
      <point x="693.0" y="512.0" type="line"/>
    </contour>
    <contour>
      <point x="706.0" y="600.0" type="line"/>
      <point x="1038.0" y="608.0" type="line"/>
      <point x="1046.0" y="512.0" type="line"/>
      <point x="693.0" y="512.0" type="line"/>
    </contour>
  </outline>
</glyph>
<glyph name="B" format="2">
  <advance width="1836"/>
  <unicode hex="0042"/>
  <outline>
    <contour>
      <point x="-127" y="0" type="line"/>
      <point x="-120" y="55" type="line"/>
      <point x="10" y="67" type="line"/>
      <point x="172" y="806" type="line"/>
      <point x="305" y="1427" type="line"/>
      <point x="156" y="1442" type="line"/>
      <point x="165" y="1500" type="line"/>
      <point x="1266" y="1500" type="line" smooth="yes"/>
      <point x="1543" y="1500"/>
      <point x="1766" y="1313"/>
      <point x="1734" y="1150" type="qcurve" smooth="yes"/>
      <point x="1704" y="996"/>
      <point x="1501" y="847"/>
      <point x="1385" y="824" type="qcurve"/>
      <point x="1383" y="817" type="line"/>
      <point x="1528" y="798"/>
      <point x="1711" y="579"/>
      <point x="1671" y="402" type="qcurve" smooth="yes"/>
      <point x="1629" y="214"/>
      <point x="1311" y="0"/>
      <point x="1005" y="0" type="qcurve" smooth="yes"/>
    </contour>
    <contour>
      <point x="504" y="75" type="line"/>
      <point x="521" y="58" type="line"/>
      <point x="757" y="58" type="line" smooth="yes"/>
      <point x="966" y="58"/>
      <point x="1176" y="224"/>
      <point x="1219" y="416" type="qcurve" smooth="yes"/>
      <point x="1259" y="598"/>
      <point x="1127" y="764"/>
      <point x="956" y="764" type="qcurve" smooth="yes"/>
      <point x="663" y="764" type="line"/>
      <point x="649" y="754" type="line"/>
    </contour>
    <contour>
      <point x="666" y="837" type="line"/>
      <point x="671" y="824" type="line"/>
      <point x="989" y="824" type="line" smooth="yes"/>
      <point x="1138" y="824"/>
      <point x="1273" y="983"/>
      <point x="1299" y="1123" type="qcurve" smooth="yes"/>
      <point x="1327" y="1274"/>
      <point x="1186" y="1439"/>
      <point x="1032" y="1439" type="qcurve" smooth="yes"/>
      <point x="818" y="1439" type="line"/>
      <point x="789" y="1425" type="line"/>
    </contour>
  </outline>
</glyph>
<glyph name="E" format="2">
  <advance width="1692"/>
  <unicode hex="0045"/>
  <outline>
    <contour>
      <point x="-92.0" y="0.0" type="line"/>
      <point x="-83.0" y="55.0" type="line"/>
      <point x="52.0" y="63.0" type="line"/>
      <point x="225.0" y="807.0" type="line"/>
      <point x="343.0" y="1432.0" type="line"/>
      <point x="195.0" y="1445.0" type="line"/>
      <point x="203.0" y="1500.0" type="line"/>
      <point x="1687.0" y="1500.0" type="line"/>
      <point x="1609.0" y="1167.0" type="line"/>
      <point x="1514.0" y="1167.0" type="line"/>
      <point x="1456.0" y="1425.0" type="line"/>
      <point x="895.0" y="1425.0" type="line"/>
      <point x="863.0" y="1403.0" type="line"/>
      <point x="733.0" y="773.0" type="line"/>
      <point x="595.0" y="182.0" type="line"/>
      <point x="690.0" y="83.0" type="line"/>
      <point x="1214.0" y="83.0" type="line"/>
      <point x="1445.0" y="373.0" type="line"/>
      <point x="1537.0" y="373.0" type="line"/>
      <point x="1408.0" y="0.0" type="line"/>
    </contour>
    <contour>
      <point x="460.0" y="706.0" type="line"/>
      <point x="473.0" y="795.0" type="line"/>
      <point x="1303.0" y="809.0" type="line"/>
      <point x="1413.0" y="955.0" type="line"/>
      <point x="1473.0" y="955.0" type="line"/>
      <point x="1386.0" y="541.0" type="line"/>
      <point x="1316.0" y="541.0" type="line"/>
      <point x="1273.0" y="730.0" type="line"/>
    </contour>
  </outline>
</glyph>
<glyph name="F" format="2">
  <advance width="1604"/>
  <unicode hex="0046"/>
  <outline>
    <contour>
      <point x="-72.0" y="0.0" type="line"/>
      <point x="-63.0" y="55.0" type="line"/>
      <point x="69.0" y="63.0" type="line"/>
      <point x="244.0" y="813.0" type="line"/>
      <point x="367.0" y="1431.0" type="line"/>
      <point x="194.0" y="1442.0" type="line"/>
      <point x="203.0" y="1500.0" type="line"/>
      <point x="1648.0" y="1500.0" type="line"/>
      <point x="1600.0" y="1167.0" type="line"/>
      <point x="1509.0" y="1167.0" type="line"/>
      <point x="1433.0" y="1425.0" type="line"/>
      <point x="924.0" y="1415.0" type="line"/>
      <point x="879.0" y="1400.0" type="line"/>
      <point x="745.0" y="767.0" type="line"/>
      <point x="598.0" y="73.0" type="line"/>
      <point x="767.0" y="55.0" type="line"/>
      <point x="756.0" y="0.0" type="line"/>
    </contour>
    <contour>
      <point x="458.0" y="693.0" type="line"/>
      <point x="470.0" y="740.0" type="line"/>
      <point x="1261.0" y="750.0" type="line"/>
      <point x="1358.0" y="920.0" type="line"/>
      <point x="1428.0" y="920.0" type="line"/>
      <point x="1340.0" y="497.0" type="line"/>
      <point x="1270.0" y="497.0" type="line"/>
      <point x="1246.0" y="681.0" type="line"/>
    </contour>
  </outline>
</glyph>
<glyph name="G" format="2">
  <advance width="2036"/>
  <unicode hex="0047"/>
  <outline>
    <contour>
      <point x="6.0" y="817.0" type="qcurve" smooth="yes"/>
      <point x="93" y="1208"/>
      <point x="776" y="1570"/>
      <point x="1182" y="1525" type="qcurve" smooth="yes"/>
      <point x="1361" y="1505"/>
      <point x="1589" y="1387"/>
      <point x="1622.0" y="1356.0" type="qcurve"/>
      <point x="1678.0" y="1484.0" type="line"/>
      <point x="1773.0" y="1484.0" type="line"/>
      <point x="1667.0" y="988.0" type="line"/>
      <point x="1573.0" y="988.0" type="line"/>
      <point x="1555" y="1144" type="line" smooth="yes"/>
      <point x="1541" y="1269"/>
      <point x="1372" y="1441"/>
      <point x="1188" y="1458" type="qcurve" smooth="yes"/>
      <point x="915" y="1483"/>
      <point x="623" y="1196"/>
      <point x="548" y="839" type="qcurve" smooth="yes"/>
      <point x="464" y="439"/>
      <point x="599.0" y="71.0"/>
      <point x="790" y="44" type="qcurve" smooth="yes"/>
      <point x="897" y="29"/>
      <point x="1089.0" y="60.0"/>
      <point x="1130.0" y="82.0" type="qcurve"/>
      <point x="1241.0" y="593.0" type="line"/>
      <point x="1113.0" y="622.0" type="line"/>
      <point x="1126.0" y="677.0" type="line"/>
      <point x="1828.0" y="677.0" type="line"/>
      <point x="1814.0" y="622.0" type="line"/>
      <point x="1676.0" y="593.0" type="line"/>
      <point x="1586.0" y="182.0" type="line"/>
      <point x="1568.0" y="168.0" type="line"/>
      <point x="1409.0" y="57.0"/>
      <point x="989" y="-43"/>
      <point x="742" y="-19" type="qcurve" smooth="yes"/>
      <point x="316" y="22"/>
      <point x="-71" y="470"/>
    </contour>
  </outline>
</glyph>
<glyph name="H" format="2">
  <advance width="2216"/>
  <unicode hex="0048"/>
  <outline>
    <contour>
      <point x="-130" y="0" type="line"/>
      <point x="-121" y="55" type="line"/>
      <point x="9" y="70" type="line"/>
      <point x="169" y="794" type="line"/>
      <point x="303" y="1427" type="line"/>
      <point x="154" y="1443" type="line"/>
      <point x="164" y="1500" type="line"/>
      <point x="950" y="1500" type="line"/>
      <point x="940" y="1443" type="line"/>
      <point x="789" y="1427" type="line"/>
      <point x="654" y="768" type="line"/>
      <point x="505" y="75" type="line"/>
      <point x="655" y="55" type="line"/>
      <point x="646" y="0" type="line"/>
    </contour>
    <contour>
      <point x="410" y="724" type="line"/>
      <point x="420" y="798" type="line"/>
      <point x="1034" y="795" type="line"/>
      <point x="1589" y="798" type="line"/>
      <point x="1579" y="724" type="line"/>
      <point x="1025" y="724" type="line"/>
    </contour>
    <contour>
      <point x="1105" y="0" type="line"/>
      <point x="1114" y="55" type="line"/>
      <point x="1255" y="75" type="line"/>
      <point x="1411" y="764" type="line"/>
      <point x="1549" y="1427" type="line"/>
      <point x="1433" y="1443" type="line"/>
      <point x="1443" y="1500" type="line"/>
      <point x="2216" y="1500" type="line"/>
      <point x="2206" y="1443" type="line"/>
      <point x="2045" y="1427" type="line"/>
      <point x="1898" y="748" type="line"/>
      <point x="1751" y="75" type="line"/>
      <point x="1911" y="55" type="line"/>
      <point x="1902" y="0" type="line"/>
    </contour>
  </outline>
</glyph>
<glyph name="I" format="2">
  <advance width="1006"/>
  <unicode hex="0049"/>
  <outline>
    <contour>
      <point x="-107.0" y="0.0" type="line"/>
      <point x="-98.0" y="51.0" type="line"/>
      <point x="29.0" y="56.0" type="line"/>
      <point x="211.0" y="858.0" type="line"/>
      <point x="325.0" y="1430.0" type="line"/>
      <point x="184.0" y="1441.0" type="line"/>
      <point x="192.0" y="1500.0" type="line"/>
      <point x="986.0" y="1500.0" type="line"/>
      <point x="978.0" y="1441.0" type="line"/>
      <point x="851.0" y="1430.0" type="line"/>
      <point x="715.0" y="826.0" type="line"/>
      <point x="556.0" y="55.0" type="line"/>
      <point x="676.0" y="51.0" type="line"/>
      <point x="687.0" y="0.0" type="line"/>
    </contour>
  </outline>
</glyph>
<glyph name="J" format="2">
  <advance width="1005"/>
  <unicode hex="004A"/>
  <outline>
    <contour>
      <point x="-189.0" y="-20.0" type="qcurve"/>
      <point x="-173.0" y="41.0" type="line"/>
      <point x="-156.0" y="41.0"/>
      <point x="-129.0" y="46.0"/>
      <point x="-109.0" y="46.0" type="qcurve" smooth="yes"/>
      <point x="-6.0" y="46.0"/>
      <point x="71.0" y="124.0"/>
      <point x="97.0" y="259.0" type="qcurve" smooth="yes"/>
      <point x="186.0" y="754.0" type="line"/>
      <point x="319.0" y="1432.0" type="line"/>
      <point x="181.0" y="1442.0" type="line"/>
      <point x="190.0" y="1500.0" type="line"/>
      <point x="1006.0" y="1500.0" type="line"/>
      <point x="980.0" y="1442.0" type="line"/>
      <point x="843.0" y="1432.0" type="line"/>
      <point x="697.0" y="754.0" type="line"/>
      <point x="628.0" y="313.0" type="line" smooth="yes"/>
      <point x="602.0" y="138.0"/>
      <point x="290.0" y="-44.0"/>
      <point x="39.0" y="-44.0" type="qcurve" smooth="yes"/>
      <point x="-32.0" y="-44.0"/>
      <point x="-161.0" y="-26.0"/>
    </contour>
  </outline>
</glyph>
<glyph name="L" format="2">
  <advance width="1516"/>
  <unicode hex="004C"/>
  <outline>
    <contour>
      <point x="-130" y="0" type="line"/>
      <point x="-122" y="55" type="line"/>
      <point x="9" y="66" type="line"/>
      <point x="176" y="796" type="line"/>
      <point x="305" y="1429" type="line"/>
      <point x="150" y="1440" type="line"/>
      <point x="160" y="1500" type="line"/>
      <point x="953" y="1500" type="line"/>
      <point x="942" y="1440" type="line"/>
      <point x="790" y="1429" type="line"/>
      <point x="651" y="768" type="line"/>
      <point x="507" y="90" type="line"/>
      <point x="534" y="56" type="line"/>
      <point x="1099" y="56" type="line"/>
      <point x="1344" y="431" type="line"/>
      <point x="1432" y="431" type="line"/>
      <point x="1307" y="0" type="line"/>
    </contour>
  </outline>
</glyph>
<glyph name="N" format="2">
  <advance width="2046"/>
  <unicode hex="004E"/>
  <outline>
    <contour>
      <point x="-119.0" y="0.0" type="line"/>
      <point x="-93.0" y="55.0" type="line"/>
      <point x="78.0" y="82.0" type="line"/>
      <point x="230.0" y="753.0" type="line"/>
      <point x="376.0" y="1429.0" type="line"/>
      <point x="182.0" y="1443.0" type="line"/>
      <point x="194.0" y="1500.0" type="line"/>
      <point x="873.0" y="1500.0" type="line"/>
      <point x="1203.0" y="935.0" type="line"/>
      <point x="1511.0" y="338.0" type="line"/>
      <point x="1611.0" y="805.0" type="line"/>
      <point x="1733.0" y="1415.0" type="line"/>
      <point x="1507.0" y="1442.0" type="line"/>
      <point x="1521.0" y="1500.0" type="line"/>
      <point x="2057.0" y="1500.0" type="line"/>
      <point x="2044.0" y="1442.0" type="line"/>
      <point x="1856.0" y="1415.0" type="line"/>
      <point x="1720.0" y="778.0" type="line"/>
      <point x="1564.0" y="0.0" type="line"/>
      <point x="1142.0" y="0.0" type="line"/>
      <point x="759.0" y="677.0" type="line"/>
      <point x="467.0" y="1283.0" type="line"/>
      <point x="331.0" y="688.0" type="line"/>
      <point x="196.0" y="82.0" type="line"/>
      <point x="436.0" y="55.0" type="line"/>
      <point x="418.0" y="0.0" type="line"/>
    </contour>
  </outline>
</glyph>
<glyph name="O" format="2">
  <advance width="2074"/>
  <unicode hex="004F"/>
  <outline>
    <contour>
      <point x="7.0" y="837.0" type="qcurve" smooth="yes"/>
      <point x="85" y="1218"/>
      <point x="779.0" y="1565.0"/>
      <point x="1186.0" y="1522.0" type="qcurve" smooth="yes"/>
      <point x="1554" y="1483"/>
      <point x="2004" y="1048"/>
      <point x="1915.0" y="665.0" type="qcurve" smooth="yes"/>
      <point x="1836" y="325"/>
      <point x="1183.0" y="-68.0"/>
      <point x="746.0" y="-21.0" type="qcurve" smooth="yes"/>
      <point x="321.0" y="21.0"/>
      <point x="-66" y="480"/>
    </contour>
    <contour>
      <point x="547" y="827" type="qcurve" smooth="yes"/>
      <point x="459.0" y="440.0"/>
      <point x="546.0" y="58.0"/>
      <point x="743.0" y="37.0" type="qcurve" smooth="yes"/>
      <point x="955.0" y="14.0"/>
      <point x="1311.0" y="344.0"/>
      <point x="1401.0" y="737.0" type="qcurve" smooth="yes"/>
      <point x="1491.0" y="1152.0"/>
      <point x="1337" y="1446"/>
      <point x="1166.0" y="1464.0" type="qcurve" smooth="yes"/>
      <point x="959.0" y="1486.0"/>
      <point x="630" y="1193"/>
    </contour>
  </outline>
</glyph>
<glyph name="P" format="2">
  <advance width="1821"/>
  <unicode hex="0050"/>
  <outline>
    <contour>
      <point x="-130" y="0" type="line"/>
      <point x="-120" y="54" type="line"/>
      <point x="9" y="68" type="line"/>
      <point x="180" y="836" type="line"/>
      <point x="307" y="1431" type="line"/>
      <point x="154" y="1442" type="line"/>
      <point x="163" y="1500" type="line"/>
      <point x="1259" y="1500" type="line" smooth="yes"/>
      <point x="1532" y="1500"/>
      <point x="1804" y="1260"/>
      <point x="1781" y="1065" type="qcurve" smooth="yes"/>
      <point x="1758" y="870"/>
      <point x="1420" y="610"/>
      <point x="1062" y="610" type="qcurve" smooth="yes"/>
      <point x="886" y="610"/>
      <point x="644" y="665"/>
      <point x="587" y="687" type="qcurve"/>
      <point x="598" y="735" type="line"/>
      <point x="641" y="720"/>
      <point x="843" y="675"/>
      <point x="948" y="675" type="qcurve" smooth="yes"/>
      <point x="1103" y="675"/>
      <point x="1248" y="871"/>
      <point x="1278" y="1055" type="qcurve" smooth="yes"/>
      <point x="1310" y="1246"/>
      <point x="1176" y="1439"/>
      <point x="977" y="1439" type="qcurve" smooth="yes"/>
      <point x="800" y="1439" type="line"/>
      <point x="787" y="1423" type="line"/>
      <point x="652" y="764" type="line"/>
      <point x="502" y="72" type="line"/>
      <point x="669" y="55" type="line"/>
      <point x="658" y="0" type="line"/>
    </contour>
  </outline>
</glyph>
<glyph name="Q" format="2">
  <advance width="2074"/>
  <unicode hex="0051"/>
  <outline>
    <contour>
      <point x="7.0" y="839.0" type="qcurve" smooth="yes"/>
      <point x="95.0" y="1237.0"/>
      <point x="745.0" y="1566.0"/>
      <point x="1186.0" y="1522.0" type="qcurve" smooth="yes"/>
      <point x="1555.0" y="1491.0"/>
      <point x="2002.0" y="1074.0"/>
      <point x="1915.0" y="665.0" type="qcurve" smooth="yes"/>
      <point x="1838.0" y="291.0"/>
      <point x="1225.0" y="-80.0"/>
      <point x="752.0" y="-35.0" type="qcurve" smooth="yes"/>
      <point x="293.0" y="5.0"/>
      <point x="-78.0" y="441.0"/>
    </contour>
    <contour>
      <point x="542.0" y="770.0" type="qcurve" smooth="yes"/>
      <point x="455.0" y="386.0"/>
      <point x="547.0" y="106.0"/>
      <point x="753.0" y="77.0" type="qcurve" smooth="yes"/>
      <point x="966.0" y="48.0"/>
      <point x="1310.0" y="374.0"/>
      <point x="1397.0" y="768.0" type="qcurve" smooth="yes"/>
      <point x="1482.0" y="1176.0"/>
      <point x="1353.0" y="1438.0"/>
      <point x="1177.0" y="1456.0" type="qcurve" smooth="yes"/>
      <point x="958.0" y="1483.0"/>
      <point x="635.0" y="1176.0"/>
    </contour>
    <contour>
      <point x="-57.0" y="-275.0" type="line"/>
      <point x="-3.0" y="-223.0"/>
      <point x="229.0" y="-89.0"/>
      <point x="358.0" y="-60.0" type="qcurve"/>
      <point x="447.0" y="-25.0"/>
      <point x="680.0" y="156.0"/>
      <point x="754.0" y="229.0" type="qcurve" smooth="yes"/>
      <point x="758.0" y="232.0"/>
      <point x="766.0" y="244.0"/>
      <point x="769.0" y="240.0" type="qcurve"/>
      <point x="783.0" y="236.0"/>
      <point x="860.0" y="210.0"/>
      <point x="869.0" y="206.0" type="qcurve"/>
      <point x="865.0" y="204.0"/>
      <point x="856.0" y="199.0"/>
      <point x="851.0" y="196.0" type="qcurve" smooth="yes"/>
      <point x="776.0" y="109.0"/>
      <point x="590.0" y="-37.0"/>
      <point x="508.0" y="-78.0" type="qcurve"/>
      <point x="1015.0" y="-149.0" type="line" smooth="yes"/>
      <point x="1214.0" y="-214.0"/>
      <point x="1420.0" y="-213.0"/>
      <point x="1504.0" y="-122.0" type="qcurve"/>
      <point x="1560.0" y="-148.0" type="line"/>
      <point x="1491.0" y="-242.0"/>
      <point x="1231.0" y="-420.0"/>
      <point x="1074.0" y="-439.0" type="qcurve"/>
      <point x="285.0" y="-279.0" type="line"/>
      <point x="205.0" y="-249.0"/>
      <point x="56.0" y="-265.0"/>
      <point x="-29.0" y="-334.0" type="qcurve"/>
    </contour>
  </outline>
</glyph>
<glyph name="T" format="2">
  <advance width="1767"/>
  <unicode hex="0054"/>
  <outline>
    <contour>
      <point x="38" y="1155" type="line"/>
      <point x="108" y="1500" type="line"/>
      <point x="1815" y="1500" type="line"/>
      <point x="1745" y="1155" type="line"/>
      <point x="1664" y="1155" type="line"/>
      <point x="1629" y="1444" type="line"/>
      <point x="1215" y="1444" type="line"/>
      <point x="1188" y="1428" type="line"/>
      <point x="1053" y="754" type="line"/>
      <point x="915" y="63" type="line"/>
      <point x="1091" y="55" type="line"/>
      <point x="1080" y="0" type="line"/>
      <point x="244" y="0" type="line"/>
      <point x="255" y="55" type="line"/>
      <point x="405" y="63" type="line"/>
      <point x="559" y="754" type="line"/>
      <point x="702" y="1428" type="line"/>
      <point x="685" y="1444" type="line"/>
      <point x="283" y="1444" type="line"/>
      <point x="120" y="1155" type="line"/>
    </contour>
  </outline>
</glyph>
<glyph name="U" format="2">
  <advance width="2006"/>
  <unicode hex="0055"/>
  <outline>
    <contour>
      <point x="145" y="1442" type="line"/>
      <point x="154" y="1500" type="line"/>
      <point x="936" y="1500" type="line"/>
      <point x="925" y="1442" type="line"/>
      <point x="770" y="1429" type="line"/>
      <point x="641" y="794" type="line" smooth="yes"/>
      <point x="611" y="647"/>
      <point x="562" y="380"/>
      <point x="562" y="276" type="qcurve" smooth="yes"/>
      <point x="562" y="171"/>
      <point x="763" y="63"/>
      <point x="976" y="62" type="qcurve" smooth="yes"/>
      <point x="1209" y="61"/>
      <point x="1574" y="298"/>
      <point x="1630" y="574" type="qcurve" smooth="yes"/>
      <point x="1676" y="797" type="line"/>
      <point x="1801" y="1413" type="line"/>
      <point x="1572" y="1442" type="line"/>
      <point x="1588" y="1500" type="line"/>
      <point x="2060" y="1500" type="line"/>
      <point x="2050" y="1442" type="line"/>
      <point x="1862" y="1413" type="line"/>
      <point x="1737" y="796" type="line"/>
      <point x="1689" y="562" type="line" smooth="yes"/>
      <point x="1625" y="246"/>
      <point x="1188" y="-25"/>
      <point x="818" y="-21" type="qcurve" smooth="yes"/>
      <point x="456" y="-18"/>
      <point x="85" y="178"/>
      <point x="85" y="350" type="qcurve" smooth="yes"/>
      <point x="85" y="443"/>
      <point x="125" y="660"/>
      <point x="153" y="794" type="qcurve" smooth="yes"/>
      <point x="286" y="1429" type="line"/>
    </contour>
  </outline>
</glyph>
<glyph name="V" format="2">
  <advance width="1681"/>
  <unicode hex="0056"/>
  <outline>
    <contour>
      <point x="-71" y="1444" type="line"/>
      <point x="-61" y="1500" type="line"/>
      <point x="802" y="1500" type="line"/>
      <point x="792" y="1444" type="line"/>
      <point x="597" y="1416" type="line"/>
      <point x="666" y="886" type="line"/>
      <point x="760" y="156" type="line"/>
      <point x="760" y="157" type="line"/>
      <point x="1207" y="805" type="line"/>
      <point x="1617" y="1398" type="line"/>
      <point x="1375" y="1444" type="line"/>
      <point x="1393" y="1500" type="line"/>
      <point x="1917" y="1500" type="line"/>
      <point x="1909" y="1444" type="line"/>
      <point x="1714" y="1407" type="line"/>
      <point x="1270" y="767" type="line"/>
      <point x="739" y="2" type="line"/>
      <point x="280" y="2" type="line"/>
      <point x="188" y="749" type="line"/>
      <point x="107" y="1411" type="line"/>
    </contour>
  </outline>
</glyph>
<glyph name="W" format="2">
  <advance width="2668"/>
  <unicode hex="0057"/>
  <outline>
    <contour>
      <point x="-17" y="1444" type="line"/>
      <point x="-13" y="1500" type="line"/>
      <point x="805" y="1500" type="line"/>
      <point x="801" y="1444" type="line"/>
      <point x="615" y="1412" type="line"/>
      <point x="657" y="808" type="line"/>
      <point x="716" y="113" type="line"/>
      <point x="718" y="113" type="line"/>
      <point x="1046" y="620" type="line"/>
      <point x="1323" y="1047" type="line"/>
      <point x="1374" y="1010" type="line"/>
      <point x="1097" y="579" type="line"/>
      <point x="725" y="2" type="line"/>
      <point x="262" y="2" type="line"/>
      <point x="189" y="741" type="line"/>
      <point x="125" y="1413" type="line"/>
    </contour>
    <contour>
      <point x="1054" y="1437" type="line"/>
      <point x="1061" y="1500" type="line"/>
      <point x="1867" y="1500" type="line"/>
      <point x="1860" y="1453" type="line"/>
      <point x="1698" y="1402" type="line"/>
      <point x="1736" y="809" type="line"/>
      <point x="1791" y="113" type="line"/>
      <point x="1792" y="112" type="line"/>
      <point x="2211" y="788" type="line"/>
      <point x="2587" y="1397" type="line"/>
      <point x="2349" y="1444" type="line"/>
      <point x="2367" y="1500" type="line"/>
      <point x="2885" y="1500" type="line"/>
      <point x="2879" y="1444" type="line"/>
      <point x="2681" y="1407" type="line"/>
      <point x="2273" y="755" type="line"/>
      <point x="1806" y="2" type="line"/>
      <point x="1347" y="2" type="line"/>
      <point x="1279" y="736" type="line"/>
      <point x="1209" y="1402" type="line"/>
    </contour>
  </outline>
</glyph>
<glyph name="X" format="2">
  <advance width="2009"/>
  <unicode hex="0058"/>
  <outline>
    <contour>
      <point x="-190.0" y="0.0" type="line"/>
      <point x="-172.0" y="55.0" type="line"/>
      <point x="31.0" y="81.0" type="line"/>
      <point x="971.0" y="834.0" type="line"/>
      <point x="1069.0" y="834.0" type="line"/>
      <point x="1743.0" y="1402.0" type="line"/>
      <point x="1554.0" y="1441.0" type="line"/>
      <point x="1568.0" y="1500.0" type="line"/>
      <point x="2133.0" y="1500.0" type="line"/>
      <point x="2118.0" y="1441.0" type="line"/>
      <point x="1911.0" y="1410.0" type="line"/>
      <point x="1126.0" y="760.0" type="line"/>
      <point x="1024.0" y="760.0" type="line"/>
      <point x="204.0" y="89.0" type="line"/>
      <point x="429.0" y="55.0" type="line"/>
      <point x="411.0" y="0.0" type="line"/>
    </contour>
    <contour>
      <point x="309.0" y="1441.0" type="line"/>
      <point x="323.0" y="1500.0" type="line"/>
      <point x="1212.0" y="1500.0" type="line"/>
      <point x="1198.0" y="1440.0" type="line"/>
      <point x="1006.0" y="1419.0" type="line"/>
      <point x="1267.0" y="868.0" type="line"/>
      <point x="1652.0" y="74.0" type="line"/>
      <point x="1808.0" y="55.0" type="line"/>
      <point x="1790.0" y="0.0" type="line"/>
      <point x="874.0" y="0.0" type="line"/>
      <point x="891.0" y="55.0" type="line"/>
      <point x="1095.0" y="74.0" type="line"/>
      <point x="811.0" y="741.0" type="line"/>
      <point x="465.0" y="1415.0" type="line"/>
    </contour>
  </outline>
</glyph>
<glyph name="Y" format="2">
  <advance width="1973"/>
  <unicode hex="0059"/>
  <outline>
    <contour>
      <point x="95.0" y="1442.0" type="line"/>
      <point x="110.0" y="1500.0" type="line"/>
      <point x="1006.0" y="1500.0" type="line"/>
      <point x="991.0" y="1442.0" type="line"/>
      <point x="824.0" y="1424.0" type="line"/>
      <point x="951.0" y="1106.0" type="line"/>
      <point x="1093.0" y="722.0" type="line"/>
      <point x="1363.0" y="1037.0" type="line"/>
      <point x="1666.0" y="1405.0" type="line"/>
      <point x="1480.0" y="1442.0" type="line"/>
      <point x="1495.0" y="1500.0" type="line"/>
      <point x="2046.0" y="1500.0" type="line"/>
      <point x="2030.0" y="1442.0" type="line"/>
      <point x="1801.0" y="1402.0" type="line"/>
      <point x="1470.0" y="1045.0" type="line"/>
      <point x="1122.0" y="633.0" type="line"/>
      <point x="1003.0" y="74.0" type="line"/>
      <point x="1174.0" y="57.0" type="line"/>
      <point x="1160.0" y="0.0" type="line"/>
      <point x="297.0" y="0.0" type="line"/>
      <point x="317.0" y="57.0" type="line"/>
      <point x="495.0" y="74.0" type="line"/>
      <point x="616.0" y="630.0" type="line"/>
      <point x="431.0" y="1062.0" type="line"/>
      <point x="271.0" y="1405.0" type="line"/>
    </contour>
  </outline>
</glyph>
<glyph name="Z" format="2">
  <advance width="1747"/>
  <unicode hex="005A"/>
  <outline>
    <contour>
      <point x="-136" y="0" type="line"/>
      <point x="-154" y="74" type="line"/>
      <point x="561" y="843" type="line"/>
      <point x="1110" y="1433" type="line"/>
      <point x="1104" y="1440" type="line"/>
      <point x="346" y="1440" type="line"/>
      <point x="171" y="1147" type="line"/>
      <point x="90" y="1147" type="line"/>
      <point x="154" y="1500" type="line"/>
      <point x="1668" y="1500" type="line"/>
      <point x="1651" y="1420" type="line"/>
      <point x="924" y="630" type="line"/>
      <point x="405" y="66" type="line"/>
      <point x="406" y="56" type="line"/>
      <point x="1206" y="56" type="line"/>
      <point x="1425" y="411" type="line"/>
      <point x="1511" y="411" type="line"/>
      <point x="1420" y="0" type="line"/>
    </contour>
  </outline>
</glyph>
<glyph name="underscore" format="2">
  <advance width="1778"/>
  <unicode hex="005F"/>
  <outline>
    <contour>
      <point x="-348.0" y="-606.0" type="line"/>
      <point x="-319.0" y="-422.0" type="line"/>
      <point x="584.0" y="-398.0" type="line"/>
      <point x="1634.0" y="-422.0" type="line"/>
      <point x="1605.0" y="-606.0" type="line"/>
      <point x="559.0" y="-606.0" type="line"/>
    </contour>
  </outline>
</glyph>
<glyph name="grave" format="2">
  <advance width="896"/>
  <unicode hex="0060"/>
  <outline>
    <contour>
      <point x="142.0" y="1229.0" type="qcurve" smooth="yes"/>
      <point x="590.0" y="1067.0" type="line"/>
      <point x="619.0" y="1137.0" type="line"/>
      <point x="316.0" y="1336.0" type="line" smooth="yes"/>
      <point x="267.0" y="1370.0"/>
      <point x="139.0" y="1449.0"/>
      <point x="102.0" y="1449.0" type="qcurve" smooth="yes"/>
      <point x="69.0" y="1449.0"/>
      <point x="8.0" y="1384.0"/>
      <point x="8.0" y="1351.0" type="qcurve" smooth="yes"/>
      <point x="8.0" y="1324.0"/>
      <point x="85.0" y="1247.0"/>
    </contour>
  </outline>
</glyph>
<glyph name="a" format="2">
  <advance width="1837"/>
  <unicode hex="0061"/>
  <outline>
    <contour>
      <point x="-38" y="278" type="qcurve" smooth="yes"/>
      <point x="-31" y="597"/>
      <point x="554" y="994"/>
      <point x="927" y="994.0" type="qcurve" smooth="yes"/>
      <point x="1057" y="994.0"/>
      <point x="1205" y="942"/>
      <point x="1246" y="913" type="qcurve"/>
      <point x="1443" y="976" type="line"/>
      <point x="1608" y="969" type="line"/>
      <point x="1665" y="885" type="line"/>
      <point x="1545" y="448" type="line"/>
      <point x="1498" y="211" type="line"/>
      <point x="1491" y="147"/>
      <point x="1533" y="37"/>
      <point x="1593" y="0" type="qcurve"/>
      <point x="1160" y="-18" type="line"/>
      <point x="1103" y="20"/>
      <point x="1034" y="147"/>
      <point x="1033" y="222" type="qcurve"/>
      <point x="919" y="118"/>
      <point x="603" y="-5"/>
      <point x="380" y="-5" type="qcurve" smooth="yes"/>
      <point x="203" y="-5"/>
      <point x="-41" y="133"/>
    </contour>
    <contour>
      <point x="429" y="339" type="qcurve" smooth="yes"/>
      <point x="419" y="221"/>
      <point x="543" y="115"/>
      <point x="639" y="115" type="qcurve" smooth="yes"/>
      <point x="795" y="115"/>
      <point x="1036" y="287"/>
      <point x="1083" y="466" type="qcurve" smooth="yes"/>
      <point x="1188" y="869" type="line"/>
      <point x="1169" y="886"/>
      <point x="1059" y="944.0"/>
      <point x="963" y="944.0" type="qcurve" smooth="yes"/>
      <point x="776" y="944"/>
      <point x="444" y="511"/>
    </contour>
  </outline>
</glyph>
<glyph name="b" format="2">
  <advance width="1907"/>
  <unicode hex="0062"/>
  <outline>
    <contour>
      <point x="83.0" y="357.0" type="qcurve" smooth="yes"/>
      <point x="138.0" y="594.0" type="line"/>
      <point x="301.0" y="1400.0" type="line"/>
      <point x="112.0" y="1388.0" type="line"/>
      <point x="121.0" y="1466.0" type="line"/>
      <point x="750.0" y="1569.0" type="line"/>
      <point x="780.0" y="1506.0" type="line"/>
      <point x="576.0" y="556.0" type="line"/>
      <point x="491.0" y="132.0" type="line" smooth="yes"/>
      <point x="484.0" y="65.0"/>
      <point x="651.0" y="-10.0"/>
      <point x="751.0" y="-6.0" type="qcurve" smooth="yes"/>
      <point x="969.0" y="-4.0"/>
      <point x="1177.0" y="462.0"/>
      <point x="1177.0" y="638.0" type="qcurve" smooth="yes"/>
      <point x="1177.0" y="697.0"/>
      <point x="1091.0" y="834.0"/>
      <point x="1007.0" y="832.0" type="qcurve" smooth="yes"/>
      <point x="906.0" y="831.0"/>
      <point x="709.0" y="801.0"/>
      <point x="561.0" y="706.0" type="qcurve"/>
      <point x="541.0" y="787.0" type="line"/>
      <point x="758.0" y="913.0"/>
      <point x="1094.0" y="1014.0"/>
      <point x="1337.0" y="1014.0" type="qcurve" smooth="yes"/>
      <point x="1524.0" y="1014.0"/>
      <point x="1679.0" y="795.0"/>
      <point x="1679.0" y="717.0" type="qcurve" smooth="yes"/>
      <point x="1679.0" y="381.0"/>
      <point x="1103.0" y="-29.0"/>
      <point x="689.0" y="-29.0" type="qcurve" smooth="yes"/>
      <point x="310.0" y="-29.0"/>
      <point x="42.0" y="168.0"/>
    </contour>
  </outline>
</glyph>
<glyph name="c" format="2">
  <advance width="1607"/>
  <unicode hex="0063"/>
  <outline>
    <contour>
      <point x="-59.0" y="484.0" type="qcurve" smooth="yes"/>
      <point x="-39.0" y="708.0"/>
      <point x="441.0" y="993.0"/>
      <point x="921.0" y="993.0" type="qcurve" smooth="yes"/>
      <point x="1148.0" y="993.0"/>
      <point x="1382.0" y="866.0"/>
      <point x="1390.0" y="793.0" type="qcurve" smooth="yes"/>
      <point x="1396.0" y="731.0"/>
      <point x="1312.0" y="597.0"/>
      <point x="1248.0" y="567.0" type="qcurve"/>
      <point x="1171.0" y="579.0" type="line"/>
      <point x="1166.0" y="855.0" type="line" smooth="yes"/>
      <point x="1165.0" y="876.0"/>
      <point x="1013.0" y="916.0"/>
      <point x="937.0" y="916.0" type="qcurve" smooth="yes"/>
      <point x="741.0" y="916.0"/>
      <point x="457.0" y="662.0"/>
      <point x="448.0" y="482.0" type="qcurve" smooth="yes"/>
      <point x="430.0" y="265.0"/>
      <point x="594.0" y="101.0"/>
      <point x="758.0" y="101.0" type="qcurve" smooth="yes"/>
      <point x="928.0" y="101.0"/>
      <point x="1219.0" y="242.0"/>
      <point x="1305.0" y="332.0" type="qcurve"/>
      <point x="1344.0" y="288.0" type="line"/>
      <point x="1347.0" y="248.0" type="line"/>
      <point x="1229.0" y="104.0"/>
      <point x="897.0" y="-23.0"/>
      <point x="645.0" y="-23.0" type="qcurve" smooth="yes"/>
      <point x="284.0" y="-23.0"/>
      <point x="-79.0" y="262.0"/>
    </contour>
  </outline>
</glyph>
<glyph name="d" format="2">
  <advance width="2001"/>
  <unicode hex="0064"/>
  <outline>
    <contour>
      <point x="-41.0" y="278.0" type="qcurve" smooth="yes"/>
      <point x="-58.0" y="591.0"/>
      <point x="554.0" y="996.0"/>
      <point x="1085.0" y="969.0" type="qcurve" smooth="yes"/>
      <point x="1273.0" y="969.0" type="line"/>
      <point x="1354.0" y="1387.0" type="line"/>
      <point x="1129.0" y="1380.0" type="line"/>
      <point x="1137.0" y="1461.0" type="line"/>
      <point x="1769.0" y="1571.0" type="line"/>
      <point x="1804.0" y="1514.0" type="line"/>
      <point x="1610.0" y="469.0" type="line"/>
      <point x="1550.0" y="129.0" type="line"/>
      <point x="1885.0" y="129.0" type="line"/>
      <point x="1882.0" y="74.0" type="line"/>
      <point x="1204.0" y="2.0" type="line"/>
      <point x="1144.0" y="22.0" type="line"/>
      <point x="1128.0" y="212.0" type="line"/>
      <point x="1020.0" y="120.0"/>
      <point x="689.0" y="-10.0"/>
      <point x="400.0" y="-10.0" type="qcurve" smooth="yes"/>
      <point x="200.0" y="-10.0"/>
      <point x="-35.0" y="135.0"/>
    </contour>
    <contour>
      <point x="417.0" y="315.0" type="qcurve" smooth="yes"/>
      <point x="420.0" y="163.0"/>
      <point x="557.0" y="108.0"/>
      <point x="632.0" y="108.0" type="qcurve" smooth="yes"/>
      <point x="802.0" y="108.0"/>
      <point x="1149.0" y="361.0"/>
      <point x="1181.0" y="498.0" type="qcurve" smooth="yes"/>
      <point x="1267.0" y="857.0" type="line"/>
      <point x="1259.0" y="868.0"/>
      <point x="1148.0" y="912.0"/>
      <point x="1023.0" y="912.0" type="qcurve" smooth="yes"/>
      <point x="799.0" y="912.0"/>
      <point x="410.0" y="512.0"/>
    </contour>
  </outline>
</glyph>
<glyph name="g" format="2">
  <advance width="1765"/>
  <unicode hex="0067"/>
  <outline>
    <contour>
      <point x="-58" y="295" type="qcurve" smooth="yes"/>
      <point x="-69" y="576"/>
      <point x="484" y="997"/>
      <point x="924" y="997" type="qcurve" smooth="yes"/>
      <point x="1029" y="997"/>
      <point x="1181" y="947"/>
      <point x="1224" y="912" type="qcurve"/>
      <point x="1413" y="975" type="line"/>
      <point x="1578" y="970" type="line"/>
      <point x="1640" y="886" type="line"/>
      <point x="1566" y="579" type="line" smooth="yes"/>
      <point x="1510" y="348"/>
      <point x="1443" y="130"/>
      <point x="1396" y="-9" type="qcurve" smooth="yes"/>
      <point x="1322" y="-230"/>
      <point x="770" y="-506"/>
      <point x="271" y="-475" type="qcurve"/>
      <point x="43" y="-409" type="line"/>
      <point x="52" y="-359" type="line"/>
      <point x="311" y="-365" type="line" smooth="yes"/>
      <point x="600" y="-372"/>
      <point x="898" y="-189"/>
      <point x="992" y="102" type="qcurve" smooth="yes"/>
      <point x="1027" y="214" type="line"/>
      <point x="973" y="134"/>
      <point x="688" y="-24"/>
      <point x="410" y="-24" type="qcurve" smooth="yes"/>
      <point x="176" y="-24"/>
      <point x="-53" y="164"/>
    </contour>
    <contour>
      <point x="408" y="291" type="qcurve" smooth="yes"/>
      <point x="413" y="188"/>
      <point x="535" y="95"/>
      <point x="635" y="95" type="qcurve" smooth="yes"/>
      <point x="790" y="95"/>
      <point x="1022" y="284"/>
      <point x="1062" y="440" type="qcurve" smooth="yes"/>
      <point x="1168" y="853" type="line"/>
      <point x="1150" y="875"/>
      <point x="1032" y="932"/>
      <point x="935" y="932" type="qcurve" smooth="yes"/>
      <point x="724" y="932"/>
      <point x="399" y="477"/>
    </contour>
  </outline>
</glyph>
<glyph name="h" format="2">
  <advance width="1840"/>
  <unicode hex="0068"/>
  <outline>
    <contour>
      <point x="60" y="-21" type="line"/>
      <point x="-15" y="99" type="line"/>
      <point x="99" y="599" type="line"/>
      <point x="263" y="1406" type="line"/>
      <point x="24" y="1384" type="line"/>
      <point x="35" y="1465" type="line"/>
      <point x="703" y="1530" type="line"/>
      <point x="730" y="1467" type="line"/>
      <point x="592" y="671" type="line"/>
      <point x="477" y="178" type="line"/>
      <point x="539" y="33" type="line"/>
    </contour>
    <contour>
      <point x="1062" y="-24" type="line"/>
      <point x="991" y="130" type="line"/>
      <point x="1116" y="623" type="line" smooth="yes"/>
      <point x="1138" y="711"/>
      <point x="1078" y="806"/>
      <point x="994" y="806" type="qcurve" smooth="yes"/>
      <point x="903" y="806"/>
      <point x="664" y="672"/>
      <point x="524" y="538" type="qcurve"/>
      <point x="504" y="603" type="line"/>
      <point x="741" y="825"/>
      <point x="1120" y="980"/>
      <point x="1313" y="980" type="qcurve" smooth="yes"/>
      <point x="1489" y="980"/>
      <point x="1623" y="764"/>
      <point x="1583" y="591" type="qcurve" smooth="yes"/>
      <point x="1476" y="129" type="line"/>
      <point x="1677" y="149" type="line"/>
      <point x="1668" y="87" type="line"/>
    </contour>
  </outline>
</glyph>
<glyph name="i" format="2">
  <advance width="779"/>
  <unicode hex="0069"/>
  <outline>
    <contour>
      <point x="15.0" y="-11.0" type="line"/>
      <point x="-44.0" y="111.0" type="line"/>
      <point x="71.0" y="527.0" type="line"/>
      <point x="119.0" y="821.0" type="line"/>
      <point x="-37.0" y="839.0" type="line"/>
      <point x="-34.0" y="910.0" type="line"/>
      <point x="461.0" y="968.0" type="line"/>
      <point x="593.0" y="954.0" type="line"/>
      <point x="598.0" y="886.0" type="line"/>
      <point x="561.0" y="711.0" type="line"/>
      <point x="434.0" y="133.0" type="line"/>
      <point x="603.0" y="128.0" type="line"/>
      <point x="594.0" y="69.0" type="line"/>
    </contour>
    <contour>
      <point x="129.0" y="1315.0" type="qcurve" smooth="yes"/>
      <point x="141.0" y="1408.0"/>
      <point x="275.0" y="1507.0"/>
      <point x="389.0" y="1507.0" type="qcurve" smooth="yes"/>
      <point x="494.0" y="1507.0"/>
      <point x="611.0" y="1400.0"/>
      <point x="597.0" y="1315.0" type="qcurve" smooth="yes"/>
      <point x="585.0" y="1224.0"/>
      <point x="451.0" y="1125.0"/>
      <point x="337.0" y="1125.0" type="qcurve" smooth="yes"/>
      <point x="232.0" y="1125.0"/>
      <point x="115.0" y="1230.0"/>
    </contour>
  </outline>
</glyph>
<glyph name="j" format="2">
  <advance width="788"/>
  <unicode hex="006A"/>
  <outline>
    <contour>
      <point x="132" y="809" type="qcurve"/>
      <point x="-96" y="841" type="line"/>
      <point x="-89" y="895" type="line"/>
      <point x="356" y="990" type="line"/>
      <point x="644" y="953" type="line"/>
      <point x="655" y="890" type="line"/>
      <point x="608" y="716" type="line"/>
      <point x="531" y="350" type="line" smooth="yes"/>
      <point x="445" y="-60"/>
      <point x="-71" y="-479"/>
      <point x="-341" y="-479" type="qcurve"/>
      <point x="-601" y="-419" type="line"/>
      <point x="-581" y="-360" type="line"/>
      <point x="-420" y="-358" type="line" smooth="yes"/>
      <point x="-183" y="-355"/>
      <point x="-28" y="-77"/>
      <point x="15" y="162" type="qcurve" smooth="yes"/>
      <point x="32" y="257"/>
      <point x="97" y="612"/>
    </contour>
    <contour>
      <point x="245" y="1284" type="qcurve" smooth="yes"/>
      <point x="258" y="1392"/>
      <point x="392" y="1506"/>
      <point x="506" y="1506" type="qcurve" smooth="yes"/>
      <point x="612" y="1506"/>
      <point x="730" y="1384"/>
      <point x="716" y="1284" type="qcurve" smooth="yes"/>
      <point x="702" y="1180"/>
      <point x="568" y="1065"/>
      <point x="454" y="1065" type="qcurve" smooth="yes"/>
      <point x="349" y="1065"/>
      <point x="231" y="1186"/>
    </contour>
  </outline>
</glyph>
<glyph name="k" format="2">
  <advance width="1610"/>
  <unicode hex="006B"/>
  <outline>
    <contour>
      <point x="66" y="-21" type="line"/>
      <point x="-16" y="101" type="line"/>
      <point x="100" y="598" type="line"/>
      <point x="265" y="1402" type="line"/>
      <point x="25" y="1385" type="line"/>
      <point x="35" y="1464" type="line"/>
      <point x="703" y="1528" type="line"/>
      <point x="732" y="1465" type="line"/>
      <point x="604" y="791" type="line"/>
      <point x="656" y="860"/>
      <point x="903" y="981"/>
      <point x="1066" y="981" type="qcurve" smooth="yes"/>
      <point x="1250" y="981"/>
      <point x="1416" y="849"/>
      <point x="1416" y="692" type="qcurve" smooth="yes"/>
      <point x="1416" y="681" type="line"/>
      <point x="1406" y="619" type="line"/>
      <point x="1182" y="525" type="line"/>
      <point x="1365" y="141" type="line"/>
      <point x="1547" y="147" type="line"/>
      <point x="1542" y="87" type="line"/>
      <point x="982" y="-16" type="line" smooth="yes"/>
      <point x="967" y="-19"/>
      <point x="952" y="-11"/>
      <point x="941" y="13" type="qcurve" smooth="yes"/>
      <point x="773" y="387" type="line"/>
      <point x="418" y="252" type="line"/>
      <point x="407" y="319" type="line"/>
      <point x="865" y="492" type="line"/>
      <point x="905" y="635"/>
      <point x="880" y="806"/>
      <point x="801" y="806.0" type="qcurve" smooth="yes"/>
      <point x="731" y="806"/>
      <point x="608" y="716"/>
      <point x="583" y="684" type="qcurve"/>
      <point x="561" y="579" type="line"/>
      <point x="478" y="179" type="line"/>
      <point x="538" y="29" type="line"/>
    </contour>
  </outline>
</glyph>
<glyph name="n" format="2">
  <advance width="1822"/>
  <unicode hex="006E"/>
  <outline>
    <contour>
      <point x="73" y="-21" type="line"/>
      <point x="0" y="99" type="line"/>
      <point x="99" y="509" type="line"/>
      <point x="165" y="802" type="line"/>
      <point x="-42" y="846" type="line"/>
      <point x="-35" y="892" type="line"/>
      <point x="371" y="992" type="line"/>
      <point x="648" y="957" type="line"/>
      <point x="626" y="702" type="line"/>
      <point x="618" y="680" type="line"/>
      <point x="494" y="180" type="line"/>
      <point x="552" y="36" type="line"/>
    </contour>
    <contour>
      <point x="1047" y="-23" type="line"/>
      <point x="975" y="129" type="line"/>
      <point x="1100" y="623" type="line" smooth="yes"/>
      <point x="1122" y="711"/>
      <point x="1063" y="807"/>
      <point x="983" y="807" type="qcurve" smooth="yes"/>
      <point x="892" y="807"/>
      <point x="650" y="674"/>
      <point x="567" y="602" type="qcurve"/>
      <point x="547" y="667" type="line"/>
      <point x="727" y="828"/>
      <point x="1105" y="980"/>
      <point x="1298" y="980" type="qcurve" smooth="yes"/>
      <point x="1467" y="980"/>
      <point x="1610" y="764"/>
      <point x="1569" y="590" type="qcurve" smooth="yes"/>
      <point x="1461" y="129" type="line"/>
      <point x="1659" y="144" type="line"/>
      <point x="1652" y="85" type="line"/>
    </contour>
  </outline>
</glyph>
<glyph name="o" format="2">
  <advance width="1811"/>
  <unicode hex="006F"/>
  <outline>
    <contour>
      <point x="-58" y="584" type="qcurve" smooth="yes"/>
      <point x="-4" y="831"/>
      <point x="526" y="1044"/>
      <point x="919" y="1007" type="qcurve" smooth="yes"/>
      <point x="1302" y="971"/>
      <point x="1670" y="673"/>
      <point x="1636" y="434" type="qcurve" smooth="yes"/>
      <point x="1603" y="204"/>
      <point x="1060" y="-57"/>
      <point x="672" y="-22" type="qcurve" smooth="yes"/>
      <point x="301" y="11"/>
      <point x="-108" y="352"/>
    </contour>
    <contour>
      <point x="450" y="540" type="qcurve" smooth="yes"/>
      <point x="406" y="329"/>
      <point x="497" y="52"/>
      <point x="693" y="33" type="qcurve" smooth="yes"/>
      <point x="891" y="14"/>
      <point x="1106" y="287"/>
      <point x="1139" y="500" type="qcurve" smooth="yes"/>
      <point x="1172" y="713"/>
      <point x="1070" y="941"/>
      <point x="888" y="954" type="qcurve" smooth="yes"/>
      <point x="692" y="968"/>
      <point x="494" y="751"/>
    </contour>
  </outline>
</glyph>
<glyph name="p" format="2">
  <advance width="1885"/>
  <unicode hex="0070"/>
  <outline>
    <contour>
      <point x="-154.0" y="-430.0" type="line"/>
      <point x="81.0" y="572.0" type="line"/>
      <point x="129.0" y="884.0" type="line"/>
      <point x="54.0" y="899.0" type="line"/>
      <point x="406.0" y="1022.0" type="line"/>
      <point x="506.0" y="1008.0" type="line"/>
      <point x="559.0" y="754.0" type="line"/>
      <point x="694.0" y="848.0"/>
      <point x="1101.0" y="1008.0"/>
      <point x="1330.0" y="1008.0" type="qcurve" smooth="yes"/>
      <point x="1484.0" y="1008.0"/>
      <point x="1668.0" y="779.0"/>
      <point x="1668.0" y="662.0" type="qcurve" smooth="yes"/>
      <point x="1668.0" y="373.0"/>
      <point x="1163.0" y="44.0"/>
      <point x="686.0" y="44.0" type="qcurve" smooth="yes"/>
      <point x="577.0" y="44.0"/>
      <point x="445.0" y="63.0"/>
      <point x="419.0" y="76.0" type="qcurve"/>
      <point x="316.0" y="-396.0" type="line"/>
      <point x="570.0" y="-411.0" type="line"/>
      <point x="566.0" y="-460.0" type="line"/>
      <point x="-110.0" y="-480.0" type="line"/>
    </contour>
    <contour>
      <point x="435.0" y="94.0" type="line"/>
      <point x="453.0" y="86.0"/>
      <point x="573.0" y="63.0"/>
      <point x="637.0" y="64.0" type="qcurve" smooth="yes"/>
      <point x="891.0" y="69.0"/>
      <point x="1168.0" y="479.0"/>
      <point x="1168.0" y="623.0" type="qcurve" smooth="yes"/>
      <point x="1168.0" y="711.0"/>
      <point x="1081.0" y="830.0"/>
      <point x="989.0" y="828.0" type="qcurve" smooth="yes"/>
      <point x="897.0" y="827.0"/>
      <point x="666.0" y="756.0"/>
      <point x="577.0" y="702.0" type="qcurve"/>
      <point x="541.0" y="551.0" type="line"/>
    </contour>
  </outline>
</glyph>
<glyph name="q" format="2">
  <advance width="1817"/>
  <unicode hex="0071"/>
  <outline>
    <contour>
      <point x="-58" y="280" type="qcurve" smooth="yes"/>
      <point x="-52" y="585"/>
      <point x="531" y="996"/>
      <point x="917" y="996" type="qcurve" smooth="yes"/>
      <point x="1053" y="996"/>
      <point x="1226" y="936"/>
      <point x="1276" y="899" type="qcurve"/>
      <point x="1424" y="977" type="line"/>
      <point x="1599" y="968" type="line"/>
      <point x="1649" y="893" type="line"/>
      <point x="1519" y="407" type="line"/>
      <point x="1338" y="-373" type="line"/>
      <point x="1512" y="-391" type="line"/>
      <point x="1498" y="-460" type="line"/>
      <point x="891" y="-472" type="line"/>
      <point x="870" y="-423" type="line"/>
      <point x="1002" y="168" type="line"/>
      <point x="994" y="168" type="line"/>
      <point x="896" y="84"/>
      <point x="638" y="-15"/>
      <point x="398" y="-15" type="qcurve" smooth="yes"/>
      <point x="186" y="-15"/>
      <point x="-61" y="134"/>
    </contour>
    <contour>
      <point x="405" y="291" type="qcurve" smooth="yes"/>
      <point x="405" y="205"/>
      <point x="503" y="100"/>
      <point x="613" y="100" type="qcurve" smooth="yes"/>
      <point x="756" y="100"/>
      <point x="1037" y="314"/>
      <point x="1082" y="488" type="qcurve" smooth="yes"/>
      <point x="1169" y="864" type="line"/>
      <point x="1143" y="883"/>
      <point x="1013" y="932"/>
      <point x="930" y="932" type="qcurve" smooth="yes"/>
      <point x="749" y="932"/>
      <point x="405" y="503"/>
    </contour>
  </outline>
</glyph>
<glyph name="r" format="2">
  <advance width="1401"/>
  <unicode hex="0072"/>
  <outline>
    <contour>
      <point x="77" y="-20" type="line"/>
      <point x="2" y="102" type="line"/>
      <point x="122" y="527" type="line"/>
      <point x="168" y="805" type="line"/>
      <point x="-43" y="846" type="line"/>
      <point x="-36" y="894" type="line"/>
      <point x="370" y="995" type="line"/>
      <point x="647" y="959" type="line"/>
      <point x="622" y="756" type="line"/>
      <point x="628" y="727" type="line"/>
      <point x="492" y="127" type="line"/>
      <point x="689" y="139" type="line"/>
      <point x="686" y="85" type="line"/>
    </contour>
    <contour>
      <point x="1039" y="614" type="line"/>
      <point x="1057" y="889" type="line"/>
      <point x="960" y="886"/>
      <point x="673" y="760"/>
      <point x="565" y="628" type="qcurve"/>
      <point x="541" y="674" type="line"/>
      <point x="624" y="789"/>
      <point x="970" y="989"/>
      <point x="1119" y="989" type="qcurve" smooth="yes"/>
      <point x="1254" y="989"/>
      <point x="1365" y="868"/>
      <point x="1365" y="774" type="qcurve" smooth="yes"/>
      <point x="1365" y="696"/>
      <point x="1212" y="558"/>
      <point x="1120" y="555" type="qcurve"/>
    </contour>
  </outline>
</glyph>
<glyph name="s" format="2">
  <advance width="1494"/>
  <unicode hex="0073"/>
  <outline>
    <contour>
      <point x="-30.0" y="160.0" type="qcurve" smooth="yes"/>
      <point x="-31.0" y="217.0"/>
      <point x="77.0" y="280.0"/>
      <point x="179.0" y="280.0" type="qcurve" smooth="yes"/>
      <point x="211.0" y="280.0" type="line"/>
      <point x="215.0" y="216.0" type="line" smooth="yes"/>
      <point x="216.0" y="122.0"/>
      <point x="431.0" y="34.0"/>
      <point x="573.0" y="34.0" type="qcurve" smooth="yes"/>
      <point x="756.0" y="34.0"/>
      <point x="939.0" y="120.0"/>
      <point x="940.0" y="159.0" type="qcurve" smooth="yes"/>
      <point x="943.0" y="208.0"/>
      <point x="781.0" y="276.0"/>
      <point x="571.0" y="319.0" type="qcurve" smooth="yes"/>
      <point x="293.0" y="391.0"/>
      <point x="127.0" y="569.0"/>
      <point x="137.0" y="698.0" type="qcurve" smooth="yes"/>
      <point x="148.0" y="848.0"/>
      <point x="429.0" y="992.0"/>
      <point x="776.0" y="992.0" type="qcurve" smooth="yes"/>
      <point x="1031.0" y="992.0"/>
      <point x="1299.0" y="881.0"/>
      <point x="1300.0" y="811.0" type="qcurve" smooth="yes"/>
      <point x="1301.0" y="760.0"/>
      <point x="1202.0" y="709.0"/>
      <point x="1120.0" y="709.0" type="qcurve" smooth="yes"/>
      <point x="1081.0" y="724.0" type="line"/>
      <point x="1079.0" y="812.0" type="line" smooth="yes"/>
      <point x="1079.0" y="860.0"/>
      <point x="862.0" y="928.0"/>
      <point x="746.0" y="928.0" type="qcurve" smooth="yes"/>
      <point x="582.0" y="928.0"/>
      <point x="455.0" y="866.0"/>
      <point x="455.0" y="817.0" type="qcurve" smooth="yes"/>
      <point x="456.0" y="790.0"/>
      <point x="595.0" y="725.0"/>
      <point x="844.0" y="651.0" type="qcurve" smooth="yes"/>
      <point x="1059.0" y="599.0"/>
      <point x="1252.0" y="462.0"/>
      <point x="1249.0" y="377.0" type="qcurve"/>
      <point x="1240.0" y="176.0"/>
      <point x="874.0" y="-27.0"/>
      <point x="548.0" y="-27.0" type="qcurve" smooth="yes"/>
      <point x="260.0" y="-27.0"/>
      <point x="-28.0" y="52.0"/>
    </contour>
  </outline>
</glyph>
<glyph name="t" format="2">
  <advance width="1025"/>
  <unicode hex="0074"/>
  <outline>
    <contour>
      <point x="86.0" y="-13.0" type="line"/>
      <point x="60.0" y="39.0" type="line"/>
      <point x="143.0" y="503.0" type="line"/>
      <point x="198.0" y="794.0" type="line"/>
      <point x="9.0" y="787.0" type="line"/>
      <point x="9.0" y="855.0" type="line"/>
      <point x="274.0" y="874.0"/>
      <point x="493.0" y="1068.0"/>
      <point x="542.0" y="1226.0" type="qcurve"/>
      <point x="731.0" y="1235.0" type="line"/>
      <point x="770.0" y="1193.0" type="line"/>
      <point x="630.0" y="486.0" type="line"/>
      <point x="569.0" y="160.0" type="line"/>
      <point x="846.0" y="169.0" type="line"/>
      <point x="841.0" y="105.0" type="line"/>
    </contour>
    <contour>
      <point x="623.0" y="794.0" type="line"/>
      <point x="629.0" y="867.0" type="line"/>
      <point x="986.0" y="873.0" type="line"/>
      <point x="970.0" y="804.0" type="line"/>
    </contour>
  </outline>
</glyph>
<glyph name="u" format="2">
  <advance width="1908"/>
  <unicode hex="0075"/>
  <outline>
    <contour>
      <point x="1115.0" y="-14.0" type="line"/>
      <point x="1041.0" y="6.0" type="line"/>
      <point x="1010.0" y="216.0" type="line"/>
      <point x="1149.0" y="833.0" type="line"/>
      <point x="1135.0" y="945.0" type="line"/>
      <point x="1604.0" y="964.0" type="line"/>
      <point x="1647.0" y="895.0" type="line"/>
      <point x="1477.0" y="250.0" type="line"/>
      <point x="1509.0" y="131.0" type="line"/>
      <point x="1717.0" y="152.0" type="line"/>
      <point x="1712.0" y="84.0" type="line"/>
    </contour>
    <contour>
      <point x="84.0" y="309.0" type="qcurve" smooth="yes"/>
      <point x="173.0" y="811.0" type="line"/>
      <point x="-17.0" y="829.0" type="line"/>
      <point x="-18.0" y="896.0" type="line"/>
      <point x="450.0" y="974.0" type="line"/>
      <point x="609.0" y="969.0" type="line"/>
      <point x="673.0" y="912.0" type="line"/>
      <point x="547.0" y="325.0" type="line" smooth="yes"/>
      <point x="528.0" y="231.0"/>
      <point x="582.0" y="126.0"/>
      <point x="670.0" y="126.0" type="qcurve" smooth="yes"/>
      <point x="774.0" y="126.0"/>
      <point x="1026.0" y="201.0"/>
      <point x="1100.0" y="275.0" type="qcurve"/>
      <point x="1117.0" y="250.0" type="line"/>
      <point x="1009.0" y="123.0"/>
      <point x="654.0" y="-17.0"/>
      <point x="460.0" y="-17.0" type="qcurve" smooth="yes"/>
      <point x="216.0" y="-17.0"/>
      <point x="59.0" y="173.0"/>
    </contour>
  </outline>
</glyph>
<glyph name="v" format="2">
  <advance width="1528"/>
  <unicode hex="0076"/>
  <outline>
    <contour>
      <point x="-95.0" y="861.0" type="line"/>
      <point x="-101.0" y="916.0" type="line"/>
      <point x="382.0" y="974.0" type="line"/>
      <point x="543.0" y="959.0" type="line"/>
      <point x="570.0" y="549.0" type="line"/>
      <point x="610.0" y="143.0" type="line"/>
      <point x="875.0" y="282.0"/>
      <point x="1226.0" y="644.0"/>
      <point x="1231.0" y="741.0" type="qcurve" smooth="yes"/>
      <point x="1235.0" y="772.0"/>
      <point x="1206.0" y="846.0"/>
      <point x="1133.0" y="922.0" type="qcurve" smooth="yes"/>
      <point x="1156.0" y="948.0"/>
      <point x="1217.0" y="989.0"/>
      <point x="1283.0" y="989.0" type="qcurve" smooth="yes"/>
      <point x="1382.0" y="989.0"/>
      <point x="1482.0" y="906.0"/>
      <point x="1476.0" y="841.0" type="qcurve" smooth="yes"/>
      <point x="1467.0" y="728.0"/>
      <point x="954.0" y="214.0"/>
      <point x="543.0" y="4.0" type="qcurve"/>
      <point x="168.0" y="10.0" type="line"/>
      <point x="140.0" y="496.0" type="line"/>
      <point x="98.0" y="865.0" type="line"/>
    </contour>
  </outline>
</glyph>
<glyph name="x" format="2">
  <advance width="1672"/>
  <unicode hex="0078"/>
  <outline>
    <contour>
      <point x="104.0" y="876.0" type="line"/>
      <point x="106.0" y="942.0" type="line"/>
      <point x="707.0" y="990.0" type="line"/>
      <point x="811.0" y="964.0" type="line"/>
      <point x="950.0" y="593.0" type="line"/>
      <point x="1176.0" y="109.0" type="line"/>
      <point x="1406.0" y="134.0" type="line"/>
      <point x="1406.0" y="73.0" type="line"/>
      <point x="816.0" y="-13.0" type="line"/>
      <point x="705.0" y="33.0" type="line"/>
      <point x="526.0" y="451.0" type="line"/>
      <point x="343.0" y="860.0" type="line"/>
    </contour>
    <contour>
      <point x="-162.0" y="95.0" type="line"/>
      <point x="-142.0" y="146.0" type="line"/>
      <point x="-60.0" y="137.0" type="line" smooth="yes"/>
      <point x="122.0" y="91.0"/>
      <point x="520.0" y="280.0"/>
      <point x="750.0" y="541.0" type="qcurve" smooth="yes"/>
      <point x="1042.0" y="874.0"/>
      <point x="1321.0" y="1004.0"/>
      <point x="1446.0" y="1004.0" type="qcurve" smooth="yes"/>
      <point x="1525.0" y="1004.0"/>
      <point x="1592.0" y="917.0"/>
      <point x="1590.0" y="855.0" type="qcurve" smooth="yes"/>
      <point x="1587.0" y="788.0"/>
      <point x="1501.0" y="653.0"/>
      <point x="1455.0" y="632.0" type="qcurve"/>
      <point x="1414.0" y="646.0" type="line"/>
      <point x="1415.0" y="801.0" type="line"/>
      <point x="1416.0" y="819.0"/>
      <point x="1395.0" y="841.0"/>
      <point x="1371.0" y="841.0" type="qcurve" smooth="yes"/>
      <point x="1250.0" y="841.0"/>
      <point x="995.0" y="706.0"/>
      <point x="778.0" y="483.0" type="qcurve" smooth="yes"/>
      <point x="457.0" y="51.0"/>
      <point x="70.0" y="-11.0"/>
      <point x="-80.0" y="71.0" type="qcurve"/>
    </contour>
  </outline>
</glyph>
<glyph name="y" format="2">
  <advance width="1496"/>
  <unicode hex="0079"/>
  <outline>
    <contour>
      <point x="-534.0" y="-421.0" type="line"/>
      <point x="-523.0" y="-363.0" type="line"/>
      <point x="-343.0" y="-348.0" type="line" smooth="yes"/>
      <point x="-173" y="-334"/>
      <point x="289" y="-216"/>
      <point x="451" y="-87" type="qcurve" smooth="yes"/>
      <point x="559.0" y="0.0" type="line"/>
      <point x="269.0" y="0.0" type="line"/>
      <point x="264.0" y="37.0"/>
      <point x="124.0" y="739.0"/>
      <point x="94.0" y="865.0" type="qcurve"/>
      <point x="-97.0" y="841.0" type="line"/>
      <point x="-92.0" y="896.0" type="line"/>
      <point x="338.0" y="992.0" type="line"/>
      <point x="525.0" y="975.0" type="line"/>
      <point x="562.0" y="906.0" type="line"/>
      <point x="712.0" y="118.0" type="line"/>
      <point x="918.0" y="295.0"/>
      <point x="1183" y="643"/>
      <point x="1187.0" y="741" type="qcurve" smooth="yes"/>
      <point x="1188" y="772"/>
      <point x="1161.0" y="843.0"/>
      <point x="1088.0" y="921.0" type="qcurve"/>
      <point x="1111" y="949"/>
      <point x="1184" y="988"/>
      <point x="1251.0" y="988.0" type="qcurve" smooth="yes"/>
      <point x="1354" y="988"/>
      <point x="1449" y="905"/>
      <point x="1444.0" y="841.0" type="qcurve" smooth="yes"/>
      <point x="1435" y="727"/>
      <point x="1016" y="285"/>
      <point x="657.0" y="-10.0" type="qcurve" smooth="yes"/>
      <point x="535.0" y="-110.0" type="line" smooth="yes"/>
      <point x="304" y="-299"/>
      <point x="-81.0" y="-473.0"/>
      <point x="-305.0" y="-479.0" type="qcurve"/>
    </contour>
  </outline>
</glyph>
<glyph name="z" format="2">
  <advance width="1526"/>
  <unicode hex="007A"/>
  <outline>
    <contour>
      <point x="-69.0" y="15.0" type="line"/>
      <point x="-158.0" y="47.0" type="line"/>
      <point x="-22.0" y="126.0"/>
      <point x="271.0" y="321.0"/>
      <point x="452.0" y="480.0" type="qcurve" smooth="yes"/>
      <point x="584.0" y="595.0"/>
      <point x="746.0" y="719.0"/>
      <point x="855.0" y="784.0" type="qcurve"/>
      <point x="230.0" y="769.0" type="line"/>
      <point x="141.0" y="641.0" type="line"/>
      <point x="25.0" y="642.0" type="line"/>
      <point x="126.0" y="916.0" type="line"/>
      <point x="186.0" y="967.0" type="line"/>
      <point x="1390.0" y="955.0" type="line"/>
      <point x="1434.0" y="926.0" type="line"/>
      <point x="1315.0" y="823.0"/>
      <point x="1125.0" y="682.0"/>
      <point x="929.0" y="517.0" type="qcurve" smooth="yes"/>
      <point x="781.0" y="400.0"/>
      <point x="573.0" y="280.0"/>
      <point x="496.0" y="231.0" type="qcurve"/>
      <point x="1152.0" y="174.0" type="line"/>
      <point x="1281.0" y="353.0" type="line"/>
      <point x="1386.0" y="343.0" type="line"/>
      <point x="1236.0" y="37.0" type="line"/>
      <point x="1143.0" y="-7.0" type="line"/>
      <point x="62.0" y="61.0" type="line"/>
    </contour>
  </outline>
</glyph>
<glyph name="twosuperior" format="2">
  <advance width="835"/>
  <unicode hex="00B2"/>
  <outline>
    <contour>
      <point x="-66.0" y="686.0" type="qcurve"/>
      <point x="-100.0" y="720.0" type="line"/>
      <point x="-22.0" y="789.0" type="line"/>
      <point x="107.0" y="877.0"/>
      <point x="428.0" y="1148.0"/>
      <point x="423.0" y="1268.0" type="qcurve" smooth="yes"/>
      <point x="420.0" y="1343.0"/>
      <point x="347.0" y="1411.0"/>
      <point x="280.0" y="1411.0" type="qcurve" smooth="yes"/>
      <point x="235.0" y="1411.0"/>
      <point x="139.0" y="1375.0"/>
      <point x="79.0" y="1327.0" type="qcurve"/>
      <point x="40.0" y="1366.0" type="line"/>
      <point x="87.0" y="1445.0"/>
      <point x="239.0" y="1525.0"/>
      <point x="346.0" y="1525.0" type="qcurve" smooth="yes"/>
      <point x="495.0" y="1525.0"/>
      <point x="679.0" y="1410.0"/>
      <point x="683.0" y="1318.0" type="qcurve" smooth="yes"/>
      <point x="691.0" y="1188.0"/>
      <point x="489.0" y="1044.0"/>
      <point x="211.0" y="866.0" type="qcurve"/>
      <point x="212.0" y="866.0" type="line"/>
      <point x="312.0" y="875.0"/>
      <point x="588.0" y="855.0"/>
      <point x="671.0" y="830.0" type="qcurve"/>
      <point x="577.0" y="669.0" type="line"/>
      <point x="411.0" y="727.0"/>
      <point x="33.0" y="756.0"/>
    </contour>
  </outline>
</glyph>
<glyph name="threesuperior" format="2">
  <advance width="817"/>
  <unicode hex="00B3"/>
  <outline>
    <contour>
      <point x="-68.0" y="706.0" type="qcurve" smooth="yes"/>
      <point x="-68.0" y="750.0"/>
      <point x="1.0" y="817.0"/>
      <point x="51.0" y="829.0" type="qcurve"/>
      <point x="91.0" y="805.0" type="line"/>
      <point x="91.0" y="787.0" type="line"/>
      <point x="73.0" y="778.0"/>
      <point x="58.0" y="743.0"/>
      <point x="58.0" y="731.0" type="qcurve" smooth="yes"/>
      <point x="58.0" y="709.0"/>
      <point x="126.0" y="649.0"/>
      <point x="187.0" y="649.0" type="qcurve" smooth="yes"/>
      <point x="336.0" y="649.0"/>
      <point x="460.0" y="783.0"/>
      <point x="469.0" y="903.0" type="qcurve" smooth="yes"/>
      <point x="478.0" y="997.0"/>
      <point x="359.0" y="1103.0"/>
      <point x="269.0" y="1105.0" type="qcurve" smooth="yes"/>
      <point x="205.0" y="1110.0" type="line"/>
      <point x="216.0" y="1160.0" type="line"/>
      <point x="264.0" y="1159.0" type="line" smooth="yes"/>
      <point x="378.0" y="1157.0"/>
      <point x="486.0" y="1244.0"/>
      <point x="486.0" y="1319.0" type="qcurve" smooth="yes"/>
      <point x="486.0" y="1376.0"/>
      <point x="436.0" y="1440.0"/>
      <point x="368.0" y="1440.0" type="qcurve" smooth="yes"/>
      <point x="341.0" y="1440.0"/>
      <point x="234.0" y="1396.0"/>
      <point x="193.0" y="1351.0" type="qcurve"/>
      <point x="144.0" y="1388.0" type="line"/>
      <point x="192.0" y="1455.0"/>
      <point x="342.0" y="1526.0"/>
      <point x="457.0" y="1526.0" type="qcurve" smooth="yes"/>
      <point x="608.0" y="1526.0"/>
      <point x="735.0" y="1437.0"/>
      <point x="735.0" y="1359.0" type="qcurve" smooth="yes"/>
      <point x="735.0" y="1271.0"/>
      <point x="587.0" y="1147.0"/>
      <point x="473.0" y="1138.0" type="qcurve"/>
      <point x="473.0" y="1134.0" type="line"/>
      <point x="596.0" y="1123.0"/>
      <point x="713.0" y="1018.0"/>
      <point x="710.0" y="927.0" type="qcurve" smooth="yes"/>
      <point x="706.0" y="788.0"/>
      <point x="434.0" y="584.0"/>
      <point x="193.0" y="584.0" type="qcurve" smooth="yes"/>
      <point x="32.0" y="584.0"/>
      <point x="-68.0" y="659.0"/>
    </contour>
  </outline>
</glyph>
<glyph name="acute" format="2">
  <advance width="896"/>
  <unicode hex="00B4"/>
  <outline>
    <contour>
      <point x="328.0" y="1119.0" type="line"/>
      <point x="384.0" y="1068.0" type="line"/>
      <point x="729.0" y="1284.0" type="line" smooth="yes"/>
      <point x="769.0" y="1303.0"/>
      <point x="776.0" y="1355.0"/>
      <point x="776.0" y="1376.0" type="qcurve" smooth="yes"/>
      <point x="776.0" y="1425.0"/>
      <point x="700.0" y="1485.0"/>
      <point x="660.0" y="1485.0" type="qcurve" smooth="yes"/>
      <point x="624.0" y="1485.0"/>
      <point x="549.0" y="1415.0"/>
      <point x="520.0" y="1380.0" type="qcurve" smooth="yes"/>
    </contour>
  </outline>
</glyph>
<glyph name="eth" format="2">
  <advance width="1869"/>
  <unicode hex="00F0"/>
  <outline>
    <contour>
      <point x="-101.0" y="575.0" type="qcurve" smooth="yes"/>
      <point x="-45.0" y="804.0"/>
      <point x="417.0" y="985.0"/>
      <point x="754.0" y="997.0" type="qcurve" smooth="yes"/>
      <point x="991.0" y="1010.0"/>
      <point x="1354.0" y="834.0"/>
      <point x="1310.0" y="617.0" type="qcurve"/>
      <point x="1145.0" y="624.0" type="line"/>
      <point x="1150.0" y="737.0"/>
      <point x="995.0" y="898.0"/>
      <point x="809.0" y="910.0" type="qcurve" smooth="yes"/>
      <point x="627.0" y="920.0"/>
      <point x="446.0" y="741.0"/>
      <point x="414.0" y="564.0" type="qcurve" smooth="yes"/>
      <point x="368.0" y="346.0"/>
      <point x="466.0" y="72.0"/>
      <point x="662.0" y="61.0" type="qcurve" smooth="yes"/>
      <point x="872.0" y="49.0"/>
      <point x="1107.0" y="291.0"/>
      <point x="1153.0" y="534.0" type="qcurve" smooth="yes"/>
      <point x="1215.0" y="937.0"/>
      <point x="1071.0" y="1343.0"/>
      <point x="829.0" y="1374.0" type="qcurve" smooth="yes"/>
      <point x="716.0" y="1390.0"/>
      <point x="384.0" y="1337.0"/>
      <point x="319.0" y="1261.0" type="qcurve"/>
      <point x="279.0" y="1261.0" type="line"/>
      <point x="279.0" y="1311.0" type="line"/>
      <point x="347.0" y="1409.0"/>
      <point x="728.0" y="1522.0"/>
      <point x="876.0" y="1513.0" type="qcurve" smooth="yes"/>
      <point x="1233.0" y="1484.0"/>
      <point x="1671.0" y="1070.0"/>
      <point x="1703.0" y="812.0" type="qcurve" smooth="yes"/>
      <point x="1643.0" y="359.0"/>
      <point x="1079.0" y="-40.0"/>
      <point x="618.0" y="-24.0" type="qcurve" smooth="yes"/>
      <point x="240.0" y="-11.0"/>
      <point x="-161.0" y="343.0"/>
    </contour>
    <contour>
      <point x="1061.0" y="1353.0" type="line"/>
      <point x="1435.0" y="1476.0" type="line"/>
      <point x="1492.0" y="1391.0" type="line"/>
      <point x="1111.0" y="1292.0" type="line"/>
      <point x="671.0" y="1114.0" type="line"/>
      <point x="612.0" y="1187.0" type="line"/>
    </contour>
  </outline>
</glyph>
<glyph name="idotless" format="2">
  <advance width="779"/>
  <unicode hex="0131"/>
  <outline>
    <contour>
      <point x="15.0" y="-11.0" type="line"/>
      <point x="-44.0" y="111.0" type="line"/>
      <point x="71.0" y="527.0" type="line"/>
      <point x="119.0" y="821.0" type="line"/>
      <point x="-37.0" y="839.0" type="line"/>
      <point x="-34.0" y="910.0" type="line"/>
      <point x="461.0" y="968.0" type="line"/>
      <point x="593.0" y="954.0" type="line"/>
      <point x="598.0" y="886.0" type="line"/>
      <point x="561.0" y="711.0" type="line"/>
      <point x="434.0" y="133.0" type="line"/>
      <point x="603.0" y="128.0" type="line"/>
      <point x="594.0" y="69.0" type="line"/>
    </contour>
  </outline>
</glyph>
<glyph name="OE" format="2">
  <advance width="2742"/>
  <unicode hex="0152"/>
  <outline>
    <contour>
      <point x="-11.0" y="827.0" type="qcurve" smooth="yes"/>
      <point x="43.0" y="1193.0"/>
      <point x="577.0" y="1522.0"/>
      <point x="1047.0" y="1514.0" type="qcurve" smooth="yes"/>
      <point x="913.0" y="1524.0"/>
      <point x="1002.0" y="1500.0"/>
      <point x="1004.0" y="1500.0" type="qcurve" smooth="yes"/>
      <point x="2737.0" y="1500.0" type="line"/>
      <point x="2659.0" y="1167.0" type="line"/>
      <point x="2564.0" y="1167.0" type="line"/>
      <point x="2506.0" y="1425.0" type="line"/>
      <point x="1958.0" y="1425.0" type="line"/>
      <point x="1926.0" y="1403.0" type="line"/>
      <point x="1796.0" y="795.0" type="line"/>
      <point x="1651.0" y="110.0" type="line"/>
      <point x="1676.0" y="83.0" type="line"/>
      <point x="2264.0" y="83.0" type="line"/>
      <point x="2495.0" y="373.0" type="line"/>
      <point x="2587.0" y="373.0" type="line"/>
      <point x="2478.0" y="0.0" type="line"/>
      <point x="1072.0" y="0.0" type="line" smooth="yes"/>
      <point x="1072.0" y="0.0"/>
      <point x="832.0" y="8.0"/>
      <point x="828.0" y="-12.0" type="qcurve" smooth="yes"/>
      <point x="336.0" y="-45.0"/>
      <point x="-67.0" y="439.0"/>
    </contour>
    <contour>
      <point x="525.0" y="772.0" type="qcurve" smooth="yes"/>
      <point x="486.0" y="492.0"/>
      <point x="439.0" y="140.0"/>
      <point x="637.0" y="79.0" type="qcurve" smooth="yes"/>
      <point x="670.0" y="45.0"/>
      <point x="1031.0" y="92.0"/>
      <point x="1140.0" y="156.0" type="qcurve"/>
      <point x="1288.0" y="807.0" type="line"/>
      <point x="1394.0" y="1356.0" type="line"/>
      <point x="1275.0" y="1408.0"/>
      <point x="1203.0" y="1443.0"/>
      <point x="981.0" y="1450.0" type="qcurve" smooth="yes"/>
      <point x="797.0" y="1444.0"/>
      <point x="583.0" y="1132.0"/>
    </contour>
    <contour>
      <point x="1523.0" y="722.0" type="line"/>
      <point x="1536.0" y="823.0" type="line"/>
      <point x="2337.0" y="831.0" type="line"/>
      <point x="2455.0" y="997.0" type="line"/>
      <point x="2535.0" y="997.0" type="line"/>
      <point x="2448.0" y="583.0" type="line"/>
      <point x="2378.0" y="583.0" type="line"/>
      <point x="2323.0" y="752.0" type="line"/>
    </contour>
  </outline>
</glyph>
<glyph name="schwa" format="2">
  <advance width="1609"/>
  <unicode hex="0259"/>
  <outline>
    <contour>
      <point x="1371.0" y="560.0" type="qcurve" smooth="yes"/>
      <point x="1342.0" y="301.0"/>
      <point x="874.0" y="-2.0"/>
      <point x="467.0" y="-2.0" type="qcurve" smooth="yes"/>
      <point x="255.0" y="-2.0"/>
      <point x="63.0" y="29.0"/>
      <point x="18.0" y="25.0" type="qcurve" smooth="yes"/>
      <point x="-21.0" y="93.0"/>
      <point x="-32.0" y="266.0"/>
      <point x="-9.0" y="355.0" type="qcurve" smooth="yes"/>
      <point x="-62.0" y="402.0" type="line"/>
      <point x="-35.0" y="433.0" type="line"/>
      <point x="45.0" y="437.0"/>
      <point x="205.0" y="439.0"/>
      <point x="309.0" y="437.0" type="qcurve" smooth="yes"/>
      <point x="940.0" y="433.0" type="line"/>
      <point x="896.0" y="365.0" type="line"/>
      <point x="249.0" y="358.0" type="line"/>
      <point x="230.0" y="312.0"/>
      <point x="213.0" y="191.0"/>
      <point x="233.0" y="127.0" type="qcurve" smooth="yes"/>
      <point x="252.0" y="102.0"/>
      <point x="348.0" y="63.0"/>
      <point x="445.0" y="63.0" type="qcurve" smooth="yes"/>
      <point x="585.0" y="63.0"/>
      <point x="812.0" y="232.0"/>
      <point x="866.0" y="457.0" type="qcurve" smooth="yes"/>
      <point x="909.0" y="623.0"/>
      <point x="793.0" y="829.0"/>
      <point x="594.0" y="841.0" type="qcurve" smooth="yes"/>
      <point x="436.0" y="851.0"/>
      <point x="114.0" y="724.0"/>
      <point x="10.0" y="618.0" type="qcurve"/>
      <point x="-37.0" y="669.0" type="line"/>
      <point x="-48.0" y="692.0" type="line"/>
      <point x="58.0" y="807.0"/>
      <point x="439.0" y="974.0"/>
      <point x="695.0" y="966.0" type="qcurve" smooth="yes"/>
      <point x="1124.0" y="955.0"/>
      <point x="1384.0" y="712.0"/>
    </contour>
  </outline>
</glyph>
<glyph name="circumflex" format="2">
  <advance width="896"/>
  <unicode hex="02C6"/>
  <outline>
    <contour>
      <point x="565.0" y="1476.0" type="qcurve" smooth="yes"/>
      <point x="602.0" y="1475.0"/>
      <point x="650.0" y="1420.0"/>
      <point x="678.0" y="1365.0" type="qcurve" smooth="yes"/>
      <point x="849.0" y="1113.0" type="line"/>
      <point x="794.0" y="1070.0" type="line"/>
      <point x="519.0" y="1277.0" type="line"/>
      <point x="129.0" y="1082.0" type="line"/>
      <point x="83.0" y="1132.0" type="line"/>
      <point x="393.0" y="1370.0" type="line" smooth="yes"/>
      <point x="458.0" y="1423.0"/>
      <point x="528.0" y="1478.0"/>
    </contour>
  </outline>
</glyph>
<glyph name="second" format="2">
  <advance width="1093"/>
  <unicode hex="2033"/>
  <outline>
    <contour>
      <point x="237.0" y="963.0" type="line"/>
      <point x="358.0" y="1386.0" type="line" smooth="yes"/>
      <point x="375.0" y="1442.0"/>
      <point x="470.0" y="1497.0"/>
      <point x="531.0" y="1475.0" type="qcurve" smooth="yes"/>
      <point x="589.0" y="1453.0"/>
      <point x="583.0" y="1326.0"/>
      <point x="538.0" y="1279.0" type="qcurve" smooth="yes"/>
      <point x="268.0" y="955.0" type="line"/>
    </contour>
    <contour>
      <point x="587.0" y="963.0" type="line"/>
      <point x="708.0" y="1386.0" type="line" smooth="yes"/>
      <point x="725.0" y="1442.0"/>
      <point x="820.0" y="1497.0"/>
      <point x="881.0" y="1475.0" type="qcurve" smooth="yes"/>
      <point x="939.0" y="1453.0"/>
      <point x="933.0" y="1326.0"/>
      <point x="888.0" y="1279.0" type="qcurve" smooth="yes"/>
      <point x="618.0" y="955.0" type="line"/>
    </contour>
  </outline>
</glyph>
<glyph name="guilsinglright" format="2">
  <advance width="1038"/>
  <unicode hex="203A"/>
  <outline>
    <contour>
      <point x="828.0" y="586.0" type="line"/>
      <point x="828.0" y="586.0"/>
      <point x="97.0" y="242.0"/>
      <point x="20.0" y="198.0" type="qcurve" smooth="yes"/>
      <point x="-47.0" y="161.0"/>
      <point x="-73.0" y="262.0"/>
      <point x="-7.0" y="307.0" type="qcurve" smooth="yes"/>
      <point x="100.0" y="378.0"/>
      <point x="499.0" y="583.0"/>
      <point x="541.0" y="614.0" type="qcurve"/>
      <point x="500.0" y="644.0"/>
      <point x="103.0" y="852.0"/>
      <point x="69.0" y="891.0" type="qcurve" smooth="yes"/>
      <point x="34.0" y="940.0"/>
      <point x="88.0" y="1027.0"/>
      <point x="133.0" y="1010.0" type="qcurve" smooth="yes"/>
      <point x="191.0" y="979.0"/>
      <point x="754.0" y="694.0"/>
      <point x="840.0" y="646.0" type="qcurve"/>
    </contour>
  </outline>
</glyph>
<glyph name="foursuperior" format="2">
  <advance width="1012"/>
  <unicode hex="2074"/>
  <outline>
    <contour>
      <point x="27.0" y="915.0" type="line"/>
      <point x="6.0" y="939.0" type="line"/>
      <point x="643.0" y="1549.0" type="line"/>
      <point x="798.0" y="1501.0" type="line"/>
      <point x="802.0" y="1476.0" type="line"/>
      <point x="718.0" y="936.0" type="line"/>
      <point x="695.0" y="792.0" type="line"/>
      <point x="692.0" y="727.0" type="line"/>
      <point x="400.0" y="683.0" type="line"/>
      <point x="398.0" y="691.0" type="line"/>
      <point x="431.0" y="922.0" type="line"/>
      <point x="503.0" y="1340.0" type="line"/>
      <point x="126.0" y="985.0" type="line"/>
      <point x="128.0" y="981.0" type="line"/>
      <point x="560.0" y="980.0" type="line"/>
      <point x="837.0" y="980.0" type="line"/>
      <point x="820.0" y="926.0" type="line"/>
      <point x="558.0" y="912.0" type="line"/>
    </contour>
  </outline>
</glyph>
<glyph name="euro" format="2">
  <advance width="1690"/>
  <unicode hex="20AC"/>
  <outline>
    <contour>
      <point x="47.0" y="887.0" type="line"/>
      <point x="91.0" y="975.0" type="line"/>
      <point x="1381.0" y="975.0" type="line"/>
      <point x="1341.0" y="887.0" type="line"/>
    </contour>
    <contour>
      <point x="-23.0" y="550.0" type="line"/>
      <point x="-22.0" y="638.0" type="line"/>
      <point x="1254.0" y="638.0" type="line"/>
      <point x="1209.0" y="550.0" type="line"/>
    </contour>
    <contour>
      <point x="1665.0" y="1278.0" type="line"/>
      <point x="1599.0" y="1343.0"/>
      <point x="1392.0" y="1410.0"/>
      <point x="1280.0" y="1410.0" type="qcurve" smooth="yes"/>
      <point x="1029.0" y="1410.0"/>
      <point x="678.0" y="1094.0"/>
      <point x="619.0" y="795.0" type="qcurve" smooth="yes"/>
      <point x="547.0" y="420.0"/>
      <point x="741.0" y="62.0"/>
      <point x="1033.0" y="62.0" type="qcurve" smooth="yes"/>
      <point x="1175.0" y="62.0"/>
      <point x="1408.0" y="143.0"/>
      <point x="1508.0" y="210.0" type="qcurve"/>
      <point x="1504.0" y="132.0" type="line"/>
      <point x="1413.0" y="56.0"/>
      <point x="1103.0" y="-32.0"/>
      <point x="911.0" y="-32.0" type="qcurve" smooth="yes"/>
      <point x="460.0" y="-32.0"/>
      <point x="100.0" y="375.0"/>
      <point x="161.0" y="726.0" type="qcurve" smooth="yes"/>
      <point x="223.0" y="1088.0"/>
      <point x="833.0" y="1495.0"/>
      <point x="1232.0" y="1495.0" type="qcurve" smooth="yes"/>
      <point x="1367.0" y="1495.0"/>
      <point x="1630.0" y="1449.0"/>
      <point x="1699.0" y="1380.0" type="qcurve"/>
    </contour>
  </outline>
</glyph>
<glyph name="liraTurkish" format="2">
  <advance width="1655"/>
  <unicode hex="20BA"/>
  <outline>
    <contour>
      <point x="92.0" y="585.0" type="line"/>
      <point x="75.0" y="640.0" type="line"/>
      <point x="502.0" y="731.0" type="line"/>
      <point x="517.0" y="737.0" type="line"/>
      <point x="1205.0" y="910.0" type="line"/>
      <point x="1201.0" y="847.0" type="line"/>
      <point x="519.0" y="677.0" type="line"/>
      <point x="506.0" y="672.0" type="line"/>
    </contour>
    <contour>
      <point x="86.0" y="800.0" type="line"/>
      <point x="70.0" y="855.0" type="line"/>
      <point x="526.0" y="949.0" type="line"/>
      <point x="547.0" y="957.0" type="line"/>
      <point x="1238.0" y="1122.0" type="line"/>
      <point x="1234.0" y="1060.0" type="line"/>
      <point x="545.0" y="897.0" type="line"/>
      <point x="531.0" y="892.0" type="line"/>
    </contour>
    <contour>
      <point x="610.0" y="177.0" type="line"/>
      <point x="650.0" y="150.0" type="line"/>
      <point x="808.0" y="171.0"/>
      <point x="1252.0" y="436.0"/>
      <point x="1302.0" y="564.0" type="qcurve" smooth="yes"/>
      <point x="1351.0" y="758.0" type="line"/>
      <point x="1396.0" y="758.0" type="line"/>
      <point x="1385.0" y="335.0" type="line"/>
      <point x="1309.0" y="256.0"/>
      <point x="672.0" y="42.0"/>
      <point x="371.0" y="-8.0" type="qcurve"/>
      <point x="246.0" y="-29.0" type="line"/>
      <point x="115.0" y="80.0" type="line"/>
      <point x="156.0" y="165.0" type="line"/>
      <point x="281.0" y="754.0" type="line"/>
      <point x="415.0" y="1419.0" type="line"/>
      <point x="271.0" y="1442.0" type="line"/>
      <point x="280.0" y="1500.0" type="line"/>
      <point x="1048.0" y="1500.0" type="line"/>
      <point x="1029.0" y="1442.0" type="line"/>
      <point x="889.0" y="1419.0" type="line"/>
      <point x="736.0" y="754.0" type="line"/>
    </contour>
  </outline>
</glyph>
<glyph name="numero" format="2">
  <advance width="2404"/>
  <unicode hex="2116"/>
  <outline>
    <contour>
      <point x="1563.0" y="639.0" type="qcurve" smooth="yes"/>
      <point x="1573.0" y="676.0"/>
      <point x="1583.0" y="679.0"/>
      <point x="1838.0" y="669.0" type="qcurve" smooth="yes"/>
      <point x="2133.0" y="656.0"/>
      <point x="2136.0" y="651.0"/>
      <point x="2129.0" y="602.0" type="qcurve" smooth="yes"/>
      <point x="2124.0" y="569.0"/>
      <point x="2119.0" y="565.0"/>
      <point x="1821.0" y="578.0" type="qcurve" smooth="yes"/>
      <point x="1558.0" y="590.0"/>
      <point x="1553.0" y="596.0"/>
    </contour>
    <contour>
      <point x="-50.0" y="0.0" type="line"/>
      <point x="-28.0" y="55.0" type="line"/>
      <point x="101.0" y="95.0" type="line"/>
      <point x="226.0" y="753.0" type="line"/>
      <point x="343.0" y="1406.0" type="line"/>
      <point x="199.0" y="1443.0" type="line"/>
      <point x="208.0" y="1500.0" type="line"/>
      <point x="709.0" y="1500.0" type="line"/>
      <point x="962.0" y="889.0" type="line"/>
      <point x="1151.0" y="315.0" type="line"/>
      <point x="1270.0" y="805.0" type="line"/>
      <point x="1377.0" y="1398.0" type="line"/>
      <point x="1203.0" y="1442.0" type="line"/>
      <point x="1214.0" y="1500.0" type="line"/>
      <point x="1636.0" y="1500.0" type="line"/>
      <point x="1625.0" y="1442.0" type="line"/>
      <point x="1483.0" y="1398.0" type="line"/>
      <point x="1362.0" y="778.0" type="line"/>
      <point x="1203.0" y="0.0" type="line"/>
      <point x="821.0" y="0.0" type="line"/>
      <point x="607.0" y="618.0" type="line"/>
      <point x="406.0" y="1170.0" type="line"/>
      <point x="309.0" y="688.0" type="line"/>
      <point x="201.0" y="95.0" type="line"/>
      <point x="391.0" y="55.0" type="line"/>
      <point x="375.0" y="0.0" type="line"/>
    </contour>
    <contour>
      <point x="1643.0" y="1167.0" type="qcurve" smooth="yes"/>
      <point x="1683.0" y="1322.0"/>
      <point x="1954.0" y="1508.0"/>
      <point x="2069.0" y="1499.0" type="qcurve" smooth="yes"/>
      <point x="2203.0" y="1489.0"/>
      <point x="2346.0" y="1250.0"/>
      <point x="2312.0" y="1110.0" type="qcurve" smooth="yes"/>
      <point x="2271.0" y="945.0"/>
      <point x="2008.0" y="762.0"/>
      <point x="1893.0" y="769.0" type="qcurve" smooth="yes"/>
      <point x="1773.0" y="777.0"/>
      <point x="1605.0" y="1014.0"/>
    </contour>
    <contour>
      <point x="1914.0" y="1157.0" type="qcurve" smooth="yes"/>
      <point x="1887.0" y="1046.0"/>
      <point x="1851.0" y="849.0"/>
      <point x="1905.0" y="842.0" type="qcurve" smooth="yes"/>
      <point x="1962.0" y="834.0"/>
      <point x="2018.0" y="1015.0"/>
      <point x="2046.0" y="1131.0" type="qcurve" smooth="yes"/>
      <point x="2073.0" y="1239.0"/>
      <point x="2101.0" y="1422.0"/>
      <point x="2052.0" y="1429.0" type="qcurve" smooth="yes"/>
      <point x="1994.0" y="1436.0"/>
      <point x="1942.0" y="1268.0"/>
    </contour>
  </outline>
</glyph>
<glyph name="trademark" format="2">
  <advance width="1887"/>
  <unicode hex="2122"/>
  <outline>
    <contour>
      <point x="201.0" y="1265.0" type="line"/>
      <point x="262.0" y="1500.0" type="line"/>
      <point x="778.0" y="1500.0" type="line"/>
      <point x="717.0" y="1265.0" type="line"/>
      <point x="664.0" y="1265.0" type="line"/>
      <point x="665.0" y="1455.0" type="line"/>
      <point x="615.0" y="1455.0" type="line"/>
      <point x="598.0" y="1438.0" type="line"/>
      <point x="520.0" y="1150.0" type="line"/>
      <point x="454.0" y="963.0" type="line"/>
      <point x="534.0" y="938.0" type="line"/>
      <point x="521.0" y="886.0" type="line"/>
      <point x="186.0" y="886.0" type="line"/>
      <point x="199.0" y="938.0" type="line"/>
      <point x="308.0" y="963.0" type="line"/>
      <point x="344.0" y="1124.0" type="line"/>
      <point x="410.0" y="1438.0" type="line"/>
      <point x="408.0" y="1455.0" type="line"/>
      <point x="347.0" y="1455.0" type="line"/>
      <point x="254.0" y="1265.0" type="line"/>
    </contour>
    <contour>
      <point x="686.0" y="887.0" type="line"/>
      <point x="698.0" y="937.0" type="line"/>
      <point x="804.0" y="961.0" type="line"/>
      <point x="860.0" y="1172.0" type="line"/>
      <point x="927.0" y="1437.0" type="line"/>
      <point x="845.0" y="1466.0" type="line"/>
      <point x="856.0" y="1500.0" type="line"/>
      <point x="1133.0" y="1500.0" type="line"/>
      <point x="1197.0" y="1076.0" type="line"/>
      <point x="1501.0" y="1500.0" type="line"/>
      <point x="1767.0" y="1500.0" type="line"/>
      <point x="1756.0" y="1466.0" type="line"/>
      <point x="1658.0" y="1437.0" type="line"/>
      <point x="1596.0" y="1211.0" type="line"/>
      <point x="1534.0" y="959.0" type="line"/>
      <point x="1617.0" y="935.0" type="line"/>
      <point x="1606.0" y="886.0" type="line"/>
      <point x="1285.0" y="886.0" type="line"/>
      <point x="1296.0" y="935.0" type="line"/>
      <point x="1385.0" y="959.0" type="line"/>
      <point x="1449.0" y="1211.0" type="line"/>
      <point x="1510.0" y="1441.0" type="line"/>
      <point x="1149.0" y="884.0" type="line"/>
      <point x="1059.0" y="884.0" type="line"/>
      <point x="976.0" y="1411.0" type="line"/>
      <point x="913.0" y="1172.0" type="line"/>
      <point x="859.0" y="961.0" type="line"/>
      <point x="942.0" y="937.0" type="line"/>
      <point x="930.0" y="887.0" type="line"/>
    </contour>
  </outline>
</glyph>
<glyph name="bulletoperator" format="2">
  <advance width="789"/>
  <unicode hex="2219"/>
  <outline>
    <contour>
      <point x="94.0" y="611.0" type="qcurve" smooth="yes"/>
      <point x="94.0" y="700.0"/>
      <point x="224.0" y="831.0"/>
      <point x="325.0" y="831.0" type="qcurve" smooth="yes"/>
      <point x="426.0" y="831.0"/>
      <point x="557.0" y="700.0"/>
      <point x="557.0" y="611.0" type="qcurve" smooth="yes"/>
      <point x="557.0" y="525.0"/>
      <point x="426.0" y="393.0"/>
      <point x="325.0" y="393.0" type="qcurve" smooth="yes"/>
      <point x="224.0" y="393.0"/>
      <point x="94.0" y="525.0"/>
    </contour>
  </outline>
</glyph>
<glyph name="lessequal" format="2">
  <advance width="1152"/>
  <unicode hex="2264"/>
  <outline>
    <contour>
      <point x="52.0" y="-40.0" type="line"/>
      <point x="52.0" y="137.0" type="line"/>
      <point x="1017.0" y="137.0" type="line"/>
      <point x="1017.0" y="-40.0" type="line"/>
    </contour>
    <contour>
      <point x="-21.0" y="675.0" type="qcurve"/>
      <point x="6.0" y="713.0"/>
      <point x="823.0" y="1102.0"/>
      <point x="919.0" y="1144.0" type="qcurve" smooth="yes"/>
      <point x="972.0" y="1169.0"/>
      <point x="1052.0" y="1000.0"/>
      <point x="1005.0" y="976.0" type="qcurve" smooth="yes"/>
      <point x="869.0" y="907.0"/>
      <point x="509.0" y="723.0"/>
      <point x="470.0" y="687.0" type="qcurve"/>
      <point x="504.0" y="658.0"/>
      <point x="872.0" y="435.0"/>
      <point x="989.0" y="386.0" type="qcurve"/>
      <point x="1022.0" y="366.0"/>
      <point x="942.0" y="231.0"/>
      <point x="911.0" y="243.0" type="qcurve" smooth="yes"/>
      <point x="785.0" y="303.0"/>
      <point x="-18.0" y="643.0"/>
    </contour>
  </outline>
</glyph>
<glyph name="leftanglebracket" format="2">
  <advance width="1342"/>
  <unicode hex="27E8"/>
  <outline>
    <contour>
      <point x="1177.0" y="1508.0" type="line"/>
      <point x="1261.0" y="1274.0" type="line"/>
      <point x="374.0" y="660.0" type="line"/>
      <point x="962.0" y="4.0" type="line"/>
      <point x="853.0" y="-155.0" type="line"/>
      <point x="2.0" y="618.0" type="line"/>
      <point x="2.0" y="703.0" type="line"/>
    </contour>
  </outline>
</glyph>
<glyph name="breveinvertedcomb" format="2">
  <advance width="896"/>
  <outline>
    <contour>
      <point x="53.0" y="1087.0" type="qcurve"/>
      <point x="-23.0" y="1109.0" type="line"/>
      <point x="44.0" y="1252.0"/>
      <point x="296.0" y="1377.0"/>
      <point x="474.0" y="1368.0" type="qcurve" smooth="yes"/>
      <point x="653.0" y="1357.0"/>
      <point x="800.0" y="1161.0"/>
      <point x="786.0" y="1045.0" type="qcurve"/>
      <point x="699.0" y="1037.0" type="line"/>
      <point x="672.0" y="1107.0"/>
      <point x="543.0" y="1208.0"/>
      <point x="428.0" y="1216.0" type="qcurve" smooth="yes"/>
      <point x="301.0" y="1224.0"/>
      <point x="119.0" y="1160.0"/>
    </contour>
  </outline>
</glyph>
<glyph name="caroncomb.alt" format="2">
  <advance width="896"/>
  <outline>
    <contour>
      <point x="246.0" y="950.0" type="line"/>
      <point x="301.0" y="1331.0" type="line" smooth="yes"/>
      <point x="317.0" y="1424.0"/>
      <point x="373.0" y="1478.0"/>
      <point x="443.0" y="1478.0" type="qcurve" smooth="yes"/>
      <point x="495.0" y="1478.0"/>
      <point x="562.0" y="1425.0"/>
      <point x="562.0" y="1390.0" type="qcurve" smooth="yes"/>
      <point x="562.0" y="1356.0"/>
      <point x="551.0" y="1300.0"/>
      <point x="521.0" y="1256.0" type="qcurve" smooth="yes"/>
      <point x="312.0" y="941.0" type="line"/>
    </contour>
  </outline>
</glyph>
<glyph name="five.lf" format="2">
  <advance width="1512"/>
  <outline>
    <contour>
      <point x="-82.0" y="183.0" type="qcurve" smooth="yes"/>
      <point x="-89.0" y="239.0"/>
      <point x="-27.0" y="337.0"/>
      <point x="46.0" y="337.0" type="qcurve"/>
      <point x="86.0" y="336.0" type="line"/>
      <point x="92.0" y="251.0" type="line" smooth="yes"/>
      <point x="99.0" y="158.0"/>
      <point x="264.0" y="62.0"/>
      <point x="441.0" y="62.0" type="qcurve" smooth="yes"/>
      <point x="630.0" y="62.0"/>
      <point x="919.0" y="290.0"/>
      <point x="906.0" y="536.0" type="qcurve" smooth="yes"/>
      <point x="896.0" y="750.0"/>
      <point x="446.0" y="826.0"/>
      <point x="255.0" y="775.0" type="qcurve" smooth="yes"/>
      <point x="178.0" y="755.0" type="line"/>
      <point x="113.0" y="816.0" type="line"/>
      <point x="262.0" y="1467.0" type="line"/>
      <point x="300.0" y="1500.0" type="line"/>
      <point x="1301.0" y="1500.0" type="line"/>
      <point x="1254.0" y="1258.0" type="line"/>
      <point x="342.0" y="1258.0" type="line"/>
      <point x="329.0" y="1247.0" type="line"/>
      <point x="310.0" y="1167.0"/>
      <point x="244.0" y="929.0"/>
      <point x="228.0" y="862.0" type="qcurve"/>
      <point x="546.0" y="950.0" type="line"/>
      <point x="879.0" y="963.0"/>
      <point x="1299.0" y="761.0"/>
      <point x="1309.0" y="541.0" type="qcurve" smooth="yes"/>
      <point x="1323.0" y="307.0"/>
      <point x="811.0" y="-17.0"/>
      <point x="461.0" y="-17.0" type="qcurve" smooth="yes"/>
      <point x="175.0" y="-17.0"/>
      <point x="-74.0" y="96.0"/>
    </contour>
  </outline>
</glyph>
<glyph name="five.tab" format="2">
  <advance width="1923"/>
  <outline>
    <contour>
      <point x="145.0" y="183.0" type="qcurve" smooth="yes"/>
      <point x="138.0" y="239.0"/>
      <point x="200.0" y="337.0"/>
      <point x="273.0" y="337.0" type="qcurve"/>
      <point x="313.0" y="336.0" type="line"/>
      <point x="319.0" y="261.0" type="line" smooth="yes"/>
      <point x="326.0" y="164.0"/>
      <point x="487.0" y="62.0"/>
      <point x="668.0" y="62.0" type="qcurve" smooth="yes"/>
      <point x="857.0" y="62.0"/>
      <point x="1156.0" y="290.0"/>
      <point x="1143.0" y="536.0" type="qcurve" smooth="yes"/>
      <point x="1133.0" y="750.0"/>
      <point x="673.0" y="826.0"/>
      <point x="482.0" y="775.0" type="qcurve" smooth="yes"/>
      <point x="405.0" y="755.0" type="line"/>
      <point x="340.0" y="816.0" type="line"/>
      <point x="489.0" y="1467.0" type="line"/>
      <point x="527.0" y="1500.0" type="line"/>
      <point x="1528.0" y="1500.0" type="line"/>
      <point x="1481.0" y="1258.0" type="line"/>
      <point x="569.0" y="1258.0" type="line"/>
      <point x="556.0" y="1247.0" type="line"/>
      <point x="537.0" y="1167.0"/>
      <point x="471.0" y="929.0"/>
      <point x="455.0" y="862.0" type="qcurve"/>
      <point x="773.0" y="950.0" type="line"/>
      <point x="1106.0" y="963.0"/>
      <point x="1526.0" y="761.0"/>
      <point x="1536.0" y="541.0" type="qcurve" smooth="yes"/>
      <point x="1550.0" y="307.0"/>
      <point x="1038.0" y="-17.0"/>
      <point x="688.0" y="-17.0" type="qcurve" smooth="yes"/>
      <point x="402.0" y="-17.0"/>
      <point x="153.0" y="96.0"/>
    </contour>
  </outline>
</glyph>
<glyph name="four.lc" format="2">
  <advance width="1566"/>
  <outline>
    <contour>
      <point x="9.0" y="-2.0" type="line"/>
      <point x="-14.0" y="92.0" type="line"/>
      <point x="1160.0" y="896.0" type="line"/>
      <point x="1348.0" y="822.0" type="line"/>
      <point x="1360.0" y="774.0" type="line"/>
      <point x="1243.0" y="104.0" type="line"/>
      <point x="1238.0" y="78.0" type="line"/>
      <point x="1188.0" y="-244.0" type="line"/>
      <point x="1198.0" y="-371.0" type="line"/>
      <point x="786.0" y="-426.0" type="line"/>
      <point x="753.0" y="-398.0" type="line"/>
      <point x="834.0" y="81.0" type="line"/>
      <point x="843.0" y="104.0" type="line"/>
      <point x="911.0" y="543.0" type="line"/>
      <point x="222.0" y="170.0" type="line"/>
      <point x="228.0" y="160.0" type="line"/>
      <point x="1049.0" y="154.0" type="line"/>
      <point x="1529.0" y="154.0" type="line"/>
      <point x="1500.0" y="-3.0" type="line"/>
      <point x="1042.0" y="-8.0" type="line"/>
    </contour>
  </outline>
</glyph>
<glyph name="horncomb" format="2">
  <advance width="896"/>
  <outline>
    <contour>
      <point x="423.0" y="902.0" type="line"/>
      <point x="535.0" y="902.0"/>
      <point x="560.0" y="902.0"/>
      <point x="596.0" y="902.0" type="qcurve" smooth="yes"/>
      <point x="726.0" y="902.0"/>
      <point x="835.0" y="1040.0"/>
      <point x="836.0" y="1141.0" type="qcurve" smooth="yes"/>
      <point x="839.0" y="1163.0"/>
      <point x="838.0" y="1164.0"/>
      <point x="839.0" y="1203.0" type="qcurve"/>
      <point x="944.0" y="1203.0" type="line"/>
      <point x="957.0" y="1180.0"/>
      <point x="977.0" y="1126.0"/>
      <point x="986.0" y="1097.0" type="qcurve" smooth="yes"/>
      <point x="1003.0" y="936.0"/>
      <point x="830.0" y="811.0"/>
      <point x="679.0" y="811.0" type="qcurve" smooth="yes"/>
      <point x="591.0" y="811.0"/>
      <point x="465.0" y="838.0"/>
      <point x="406.0" y="857.0" type="qcurve"/>
    </contour>
  </outline>
</glyph>
<glyph name="one.tab" format="2">
  <advance width="1923"/>
  <outline>
    <contour>
      <point x="452.0" y="25.0" type="line"/>
      <point x="478.0" y="59.0"/>
      <point x="504.0" y="151.0"/>
      <point x="531.0" y="314.0" type="qcurve" smooth="yes"/>
      <point x="680.0" y="1035.0" type="line"/>
      <point x="729.0" y="1284.0" type="line"/>
      <point x="359.0" y="1109.0" type="line"/>
      <point x="322.0" y="1209.0" type="line"/>
      <point x="1063.0" y="1527.0" type="line"/>
      <point x="1199.0" y="1443.0" type="line"/>
      <point x="1178.0" y="1401.0"/>
      <point x="1166.0" y="1303.0"/>
      <point x="1152.0" y="1235.0" type="qcurve" smooth="yes"/>
      <point x="1039.0" y="714.0" type="line"/>
      <point x="939.0" y="143.0" type="line"/>
      <point x="575.0" y="-33.0" type="line"/>
    </contour>
  </outline>
</glyph>
<glyph name="ringcomb.case" format="2">
  <advance width="896"/>
  <outline>
    <contour>
      <point x="195.0" y="1864.0" type="qcurve" smooth="yes"/>
      <point x="195.0" y="1969.0"/>
      <point x="369.0" y="2144.0"/>
      <point x="510.0" y="2144.0" type="qcurve" smooth="yes"/>
      <point x="651.0" y="2144.0"/>
      <point x="825.0" y="1969.0"/>
      <point x="825.0" y="1864.0" type="qcurve" smooth="yes"/>
      <point x="825.0" y="1758.0"/>
      <point x="651.0" y="1583.0"/>
      <point x="510.0" y="1583.0" type="qcurve" smooth="yes"/>
      <point x="369.0" y="1583.0"/>
      <point x="195.0" y="1758.0"/>
    </contour>
    <contour>
      <point x="336.0" y="1864.0" type="qcurve" smooth="yes"/>
      <point x="336.0" y="1792.0"/>
      <point x="432.0" y="1704.0"/>
      <point x="510.0" y="1704.0" type="qcurve" smooth="yes"/>
      <point x="588.0" y="1704.0"/>
      <point x="684.0" y="1791.0"/>
      <point x="684.0" y="1864.0" type="qcurve" smooth="yes"/>
      <point x="684.0" y="1934.0"/>
      <point x="588.0" y="2023.0"/>
      <point x="510.0" y="2023.0" type="qcurve" smooth="yes"/>
      <point x="432.0" y="2023.0"/>
      <point x="336.0" y="1936.0"/>
    </contour>
  </outline>
</glyph>
<glyph name="three.lc" format="2">
  <advance width="1337"/>
  <outline>
    <contour>
      <point x="-191.0" y="-291.0" type="line"/>
      <point x="-143.0" y="-302.0"/>
      <point x="11.0" y="-313.0"/>
      <point x="90.0" y="-313.0" type="qcurve" smooth="yes"/>
      <point x="383.0" y="-313.0"/>
      <point x="736.0" y="-131.0"/>
      <point x="745.0" y="10.0" type="qcurve" smooth="yes"/>
      <point x="752.0" y="115.0"/>
      <point x="562.0" y="259.0"/>
      <point x="360.0" y="266.0" type="qcurve" smooth="yes"/>
      <point x="237.0" y="270.0" type="line"/>
      <point x="251.0" y="345.0" type="line"/>
      <point x="343.0" y="347.0" type="line" smooth="yes"/>
      <point x="566.0" y="354.0"/>
      <point x="824.0" y="489.0"/>
      <point x="831.0" y="594.0" type="qcurve" smooth="yes"/>
      <point x="834.0" y="668.0"/>
      <point x="698.0" y="746.0"/>
      <point x="566.0" y="746.0" type="qcurve" smooth="yes"/>
      <point x="455.0" y="746.0"/>
      <point x="202.0" y="695.0"/>
      <point x="119.0" y="645.0" type="qcurve"/>
      <point x="89.0" y="745.0" type="line"/>
      <point x="188.0" y="819.0"/>
      <point x="505.0" y="912.0"/>
      <point x="729.0" y="911.0" type="qcurve" smooth="yes"/>
      <point x="993.0" y="910.0"/>
      <point x="1253.0" y="768.0"/>
      <point x="1246.0" y="650.0" type="qcurve" smooth="yes"/>
      <point x="1239.0" y="511.0"/>
      <point x="953.0" y="344.0"/>
      <point x="746.0" y="321.0" type="qcurve"/>
      <point x="745.0" y="316.0" type="line"/>
      <point x="928.0" y="303.0"/>
      <point x="1172.0" y="163.0"/>
      <point x="1161.0" y="32.0" type="qcurve" smooth="yes"/>
      <point x="1146.0" y="-181.0"/>
      <point x="587.0" y="-417.0"/>
      <point x="115.0" y="-417.0" type="qcurve" smooth="yes"/>
      <point x="15.0" y="-417.0"/>
      <point x="-190.0" y="-393.0"/>
      <point x="-244.0" y="-371.0" type="qcurve"/>
    </contour>
  </outline>
</glyph>
